<ttFont>
<head>
    <!-- Most of this table will be recalculated by the compiler -->
    <tableVersion value="1.0"/>
    <fontRevision value="0.84999"/>
    <checkSumAdjustment value="0x6ff67834"/>
    <magicNumber value="0x5f0f3cf5"/>
    <flags value="00000000 00000111"/>
    <unitsPerEm value="1000"/>
    <created value="Sat Nov 28 12:14:13 2020"/>
    <modified value="Wed Sep  1 18:33:29 2021"/>
    <xMin value="-155"/>
    <yMin value="-216"/>
    <xMax value="726"/>
    <yMax value="1024"/>
    <macStyle value="00000000 00000000"/>
    <lowestRecPPEM value="7"/>
    <fontDirectionHint value="2"/>
    <indexToLocFormat value="0"/>
    <glyphDataFormat value="0"/>
  </head>
    <TTGlyph name=".notdef" xMin="98" yMin="-200" xMax="431" yMax="850">
      <contour>
        <pt x="431" y="-200" on="1"/>
        <pt x="98" y="-200" on="1"/>
        <pt x="98" y="850" on="1"/>
        <pt x="431" y="850" on="1"/>
      </contour>
      <contour>
        <pt x="350" y="-128" on="1"/>
        <pt x="350" y="-93" on="1"/>
        <pt x="243" y="-93" on="1"/>
        <pt x="316" y="-44" on="1"/>
        <pt x="350" y="-44" on="1"/>
        <pt x="350" y="-9" on="1"/>
        <pt x="175" y="-9" on="1"/>
        <pt x="175" y="-44" on="1"/>
        <pt x="249" y="-44" on="1"/>
        <pt x="175" y="-93" on="1"/>
        <pt x="175" y="-128" on="1"/>
      </contour>
      <contour>
        <pt x="350" y="15" on="1"/>
        <pt x="350" y="134" on="1"/>
        <pt x="175" y="134" on="1"/>
        <pt x="175" y="15" on="1"/>
      </contour>
      <contour>
        <pt x="350" y="197" on="1"/>
        <pt x="350" y="316" on="1"/>
        <pt x="245" y="316" on="1"/>
        <pt x="245" y="257" on="1"/>
        <pt x="280" y="257" on="1"/>
        <pt x="280" y="281" on="1"/>
        <pt x="315" y="281" on="1"/>
        <pt x="315" y="232" on="1"/>
        <pt x="210" y="232" on="1"/>
        <pt x="210" y="316" on="1"/>
        <pt x="175" y="316" on="1"/>
        <pt x="175" y="197" on="1"/>
      </contour>
      <contour>
        <pt x="350" y="339" on="1"/>
        <pt x="350" y="444" on="1"/>
        <pt x="315" y="444" on="1"/>
        <pt x="315" y="374" on="1"/>
        <pt x="175" y="374" on="1"/>
        <pt x="175" y="339" on="1"/>
      </contour>
      <contour>
        <pt x="280" y="399" on="1"/>
        <pt x="280" y="472" on="1"/>
        <pt x="350" y="472" on="1"/>
        <pt x="350" y="507" on="1"/>
        <pt x="175" y="507" on="1"/>
        <pt x="175" y="472" on="1"/>
        <pt x="245" y="472" on="1"/>
        <pt x="245" y="433" on="1"/>
        <pt x="175" y="433" on="1"/>
        <pt x="175" y="399" on="1"/>
      </contour>
      <contour>
        <pt x="350" y="535" on="1"/>
        <pt x="350" y="571" on="1"/>
        <pt x="280" y="571" on="1"/>
        <pt x="280" y="644" on="1"/>
        <pt x="175" y="644" on="1"/>
        <pt x="175" y="535" on="1"/>
      </contour>
      <contour>
        <pt x="350" y="672" on="1"/>
        <pt x="350" y="706" on="1"/>
        <pt x="280" y="706" on="1"/>
        <pt x="280" y="745" on="1"/>
        <pt x="350" y="745" on="1"/>
        <pt x="350" y="780" on="1"/>
        <pt x="176" y="780" on="1"/>
        <pt x="176" y="745" on="1"/>
        <pt x="245" y="745" on="1"/>
        <pt x="245" y="706" on="1"/>
        <pt x="175" y="706" on="1"/>
        <pt x="175" y="672" on="1"/>
      </contour>
      <contour>
        <pt x="210" y="99" on="1"/>
        <pt x="315" y="99" on="1"/>
        <pt x="315" y="50" on="1"/>
        <pt x="210" y="50" on="1"/>
      </contour>
      <contour>
        <pt x="210" y="609" on="1"/>
        <pt x="245" y="609" on="1"/>
        <pt x="245" y="571" on="1"/>
        <pt x="210" y="571" on="1"/>
      </contour>
    </TTGlyph>
    <TTGlyph name="A" xMin="56" yMin="0" xMax="694" yMax="800">
      <contour>
        <pt x="499" y="271" on="1"/>
        <pt x="244" y="271" on="1"/>
        <pt x="170" y="0" on="1"/>
        <pt x="56" y="0" on="1"/>
        <pt x="279" y="800" on="1"/>
        <pt x="471" y="800" on="1"/>
        <pt x="694" y="0" on="1"/>
        <pt x="573" y="0" on="1"/>
      </contour>
      <contour>
        <pt x="469" y="379" on="1"/>
        <pt x="372" y="736" on="1"/>
        <pt x="274" y="379" on="1"/>
      </contour>
    </TTGlyph>
    <TTGlyph name="B" xMin="120" yMin="0" xMax="676" yMax="800">
      <contour>
        <pt x="529" y="800" on="0"/>
        <pt x="676" y="683" on="0"/>
        <pt x="676" y="582" on="1"/>
        <pt x="676" y="509" on="0"/>
        <pt x="595" y="423" on="0"/>
        <pt x="520" y="416" on="1"/>
        <pt x="520" y="386" on="1"/>
        <pt x="592" y="379" on="0"/>
        <pt x="670" y="292" on="0"/>
        <pt x="670" y="218" on="1"/>
        <pt x="670" y="117" on="0"/>
        <pt x="523" y="0" on="0"/>
        <pt x="396" y="0" on="1"/>
        <pt x="120" y="0" on="1"/>
        <pt x="120" y="800" on="1"/>
        <pt x="402" y="800" on="1"/>
      </contour>
      <contour>
        <pt x="396" y="110" on="1"/>
        <pt x="474" y="110" on="0"/>
        <pt x="558" y="172" on="0"/>
        <pt x="558" y="229" on="1"/>
        <pt x="558" y="286" on="0"/>
        <pt x="474" y="348" on="0"/>
        <pt x="396" y="348" on="1"/>
        <pt x="234" y="348" on="1"/>
        <pt x="234" y="110" on="1"/>
      </contour>
      <contour>
        <pt x="402" y="454" on="1"/>
        <pt x="480" y="454" on="0"/>
        <pt x="564" y="515" on="0"/>
        <pt x="564" y="572" on="1"/>
        <pt x="564" y="629" on="0"/>
        <pt x="480" y="690" on="0"/>
        <pt x="402" y="690" on="1"/>
        <pt x="234" y="690" on="1"/>
        <pt x="234" y="454" on="1"/>
      </contour>
    </TTGlyph>
    <TTGlyph name="C" xMin="84" yMin="-16" xMax="694" yMax="816">
      <contour>
        <pt x="241" y="-16" on="0"/>
        <pt x="84" y="196" on="0"/>
        <pt x="84" y="400" on="1"/>
        <pt x="84" y="604" on="0"/>
        <pt x="247" y="816" on="0"/>
        <pt x="401" y="816" on="1"/>
        <pt x="526" y="816" on="0"/>
        <pt x="678" y="662" on="0"/>
        <pt x="694" y="520" on="1"/>
        <pt x="582" y="520" on="1"/>
        <pt x="568" y="615" on="0"/>
        <pt x="480" y="706" on="0"/>
        <pt x="401" y="706" on="1"/>
        <pt x="298" y="706" on="0"/>
        <pt x="198" y="556" on="0"/>
        <pt x="198" y="400" on="1"/>
        <pt x="198" y="244" on="0"/>
        <pt x="293" y="94" on="0"/>
        <pt x="391" y="94" on="1"/>
        <pt x="467" y="94" on="0"/>
        <pt x="553" y="178" on="0"/>
        <pt x="567" y="266" on="1"/>
        <pt x="679" y="266" on="1"/>
        <pt x="662" y="129" on="0"/>
        <pt x="513" y="-16" on="0"/>
        <pt x="391" y="-16" on="1"/>
      </contour>
    </TTGlyph>
    <TTGlyph name="D" xMin="100" yMin="0" xMax="670" yMax="800">
      <contour>
        <pt x="100" y="800" on="1"/>
        <pt x="320" y="800" on="1"/>
        <pt x="493" y="800" on="0"/>
        <pt x="670" y="598" on="0"/>
        <pt x="670" y="400" on="1"/>
        <pt x="670" y="202" on="0"/>
        <pt x="493" y="0" on="0"/>
        <pt x="320" y="0" on="1"/>
        <pt x="100" y="0" on="1"/>
      </contour>
      <contour>
        <pt x="320" y="110" on="1"/>
        <pt x="437" y="110" on="0"/>
        <pt x="556" y="257" on="0"/>
        <pt x="556" y="400" on="1"/>
        <pt x="556" y="543" on="0"/>
        <pt x="437" y="690" on="0"/>
        <pt x="320" y="690" on="1"/>
        <pt x="214" y="690" on="1"/>
        <pt x="214" y="110" on="1"/>
      </contour>
    </TTGlyph>
    <TTGlyph name="E" xMin="140" yMin="0" xMax="650" yMax="800">
      <contour>
        <pt x="140" y="800" on="1"/>
        <pt x="650" y="800" on="1"/>
        <pt x="650" y="690" on="1"/>
        <pt x="254" y="690" on="1"/>
        <pt x="254" y="456" on="1"/>
        <pt x="590" y="456" on="1"/>
        <pt x="590" y="350" on="1"/>
        <pt x="254" y="350" on="1"/>
        <pt x="254" y="110" on="1"/>
        <pt x="630" y="110" on="1"/>
        <pt x="630" y="0" on="1"/>
        <pt x="140" y="0" on="1"/>
      </contour>
    </TTGlyph>
    <TTGlyph name="Euro" xMin="40" yMin="-16" xMax="698" yMax="816">
      <contour>
        <pt x="302" y="-16" on="0"/>
        <pt x="158" y="133" on="0"/>
        <pt x="138" y="278" on="1"/>
        <pt x="40" y="278" on="1"/>
        <pt x="40" y="370" on="1"/>
        <pt x="130" y="370" on="1"/>
        <pt x="130" y="400" on="1"/>
        <pt x="130" y="434" on="0"/>
        <pt x="131" y="450" on="1"/>
        <pt x="40" y="450" on="1"/>
        <pt x="40" y="542" on="1"/>
        <pt x="141" y="542" on="1"/>
        <pt x="164" y="677" on="0"/>
        <pt x="307" y="816" on="0"/>
        <pt x="423" y="816" on="1"/>
        <pt x="543" y="816" on="0"/>
        <pt x="686" y="670" on="0"/>
        <pt x="698" y="536" on="1"/>
        <pt x="588" y="536" on="1"/>
        <pt x="577" y="623" on="0"/>
        <pt x="496" y="706" on="0"/>
        <pt x="423" y="706" on="1"/>
        <pt x="355" y="706" on="0"/>
        <pt x="273" y="625" on="0"/>
        <pt x="256" y="542" on="1"/>
        <pt x="490" y="542" on="1"/>
        <pt x="490" y="450" on="1"/>
        <pt x="245" y="450" on="1"/>
        <pt x="244" y="434" on="0"/>
        <pt x="244" y="400" on="1"/>
        <pt x="244" y="370" on="1"/>
        <pt x="490" y="370" on="1"/>
        <pt x="490" y="278" on="1"/>
        <pt x="252" y="278" on="1"/>
        <pt x="267" y="185" on="0"/>
        <pt x="351" y="94" on="0"/>
        <pt x="421" y="94" on="1"/>
        <pt x="483" y="94" on="0"/>
        <pt x="555" y="168" on="0"/>
        <pt x="567" y="244" on="1"/>
        <pt x="678" y="244" on="1"/>
        <pt x="663" y="120" on="0"/>
        <pt x="529" y="-16" on="0"/>
        <pt x="421" y="-16" on="1"/>
      </contour>
    </TTGlyph>
    <TTGlyph name="F" xMin="160" yMin="0" xMax="670" yMax="800">
      <contour>
        <pt x="160" y="800" on="1"/>
        <pt x="670" y="800" on="1"/>
        <pt x="670" y="690" on="1"/>
        <pt x="274" y="690" on="1"/>
        <pt x="274" y="446" on="1"/>
        <pt x="620" y="446" on="1"/>
        <pt x="620" y="336" on="1"/>
        <pt x="274" y="336" on="1"/>
        <pt x="274" y="0" on="1"/>
        <pt x="160" y="0" on="1"/>
      </contour>
    </TTGlyph>
    <TTGlyph name="G" xMin="74" yMin="-16" xMax="684" yMax="816">
      <contour>
        <pt x="273" y="-16" on="0"/>
        <pt x="144" y="78" on="0"/>
        <pt x="74" y="265" on="0"/>
        <pt x="74" y="400" on="1"/>
        <pt x="74" y="603" on="0"/>
        <pt x="239" y="816" on="0"/>
        <pt x="395" y="816" on="1"/>
        <pt x="517" y="816" on="0"/>
        <pt x="668" y="673" on="0"/>
        <pt x="684" y="540" on="1"/>
        <pt x="572" y="540" on="1"/>
        <pt x="559" y="625" on="0"/>
        <pt x="472" y="706" on="0"/>
        <pt x="395" y="706" on="1"/>
        <pt x="289" y="706" on="0"/>
        <pt x="188" y="556" on="0"/>
        <pt x="188" y="400" on="1"/>
        <pt x="188" y="243" on="0"/>
        <pt x="287" y="90" on="0"/>
        <pt x="388" y="90" on="1"/>
        <pt x="463" y="90" on="0"/>
        <pt x="546" y="188" on="0"/>
        <pt x="558" y="290" on="1"/>
        <pt x="364" y="290" on="1"/>
        <pt x="364" y="400" on="1"/>
        <pt x="658" y="400" on="1"/>
        <pt x="658" y="0" on="1"/>
        <pt x="558" y="0" on="1"/>
        <pt x="558" y="100" on="1"/>
        <pt x="528" y="100" on="1"/>
        <pt x="492" y="-16" on="0"/>
        <pt x="360" y="-16" on="1"/>
      </contour>
    </TTGlyph>
    <TTGlyph name="H" xMin="100" yMin="0" xMax="650" yMax="800">
      <contour>
        <pt x="214" y="800" on="1"/>
        <pt x="214" y="457" on="1"/>
        <pt x="536" y="457" on="1"/>
        <pt x="536" y="800" on="1"/>
        <pt x="650" y="800" on="1"/>
        <pt x="650" y="0" on="1"/>
        <pt x="536" y="0" on="1"/>
        <pt x="536" y="349" on="1"/>
        <pt x="214" y="349" on="1"/>
        <pt x="214" y="0" on="1"/>
        <pt x="100" y="0" on="1"/>
        <pt x="100" y="800" on="1"/>
      </contour>
    </TTGlyph>
    <TTGlyph name="I" xMin="120" yMin="0" xMax="630" yMax="800">
      <contour>
        <pt x="120" y="110" on="1"/>
        <pt x="318" y="110" on="1"/>
        <pt x="318" y="690" on="1"/>
        <pt x="120" y="690" on="1"/>
        <pt x="120" y="800" on="1"/>
        <pt x="630" y="800" on="1"/>
        <pt x="630" y="690" on="1"/>
        <pt x="432" y="690" on="1"/>
        <pt x="432" y="110" on="1"/>
        <pt x="630" y="110" on="1"/>
        <pt x="630" y="0" on="1"/>
        <pt x="120" y="0" on="1"/>
      </contour>
    </TTGlyph>
    <TTGlyph name="J" xMin="102" yMin="-16" xMax="618" yMax="800">
      <contour>
        <pt x="240" y="-16" on="0"/>
        <pt x="102" y="126" on="0"/>
        <pt x="102" y="250" on="1"/>
        <pt x="102" y="350" on="1"/>
        <pt x="214" y="350" on="1"/>
        <pt x="214" y="250" on="1"/>
        <pt x="214" y="175" on="0"/>
        <pt x="289" y="94" on="0"/>
        <pt x="359" y="94" on="1"/>
        <pt x="429" y="94" on="0"/>
        <pt x="504" y="175" on="0"/>
        <pt x="504" y="250" on="1"/>
        <pt x="504" y="690" on="1"/>
        <pt x="160" y="690" on="1"/>
        <pt x="160" y="800" on="1"/>
        <pt x="618" y="800" on="1"/>
        <pt x="618" y="250" on="1"/>
        <pt x="618" y="126" on="0"/>
        <pt x="480" y="-16" on="0"/>
        <pt x="359" y="-16" on="1"/>
      </contour>
    </TTGlyph>
    <TTGlyph name="K" xMin="140" yMin="0" xMax="724" yMax="800">
      <contour>
        <pt x="254" y="800" on="1"/>
        <pt x="254" y="429" on="1"/>
        <pt x="580" y="800" on="1"/>
        <pt x="724" y="800" on="1"/>
        <pt x="359" y="390" on="1"/>
        <pt x="706" y="0" on="1"/>
        <pt x="557" y="0" on="1"/>
        <pt x="254" y="345" on="1"/>
        <pt x="254" y="0" on="1"/>
        <pt x="140" y="0" on="1"/>
        <pt x="140" y="800" on="1"/>
      </contour>
    </TTGlyph>
    <TTGlyph name="L" xMin="181" yMin="0" xMax="671" yMax="800">
      <contour>
        <pt x="181" y="800" on="1"/>
        <pt x="295" y="800" on="1"/>
        <pt x="295" y="110" on="1"/>
        <pt x="671" y="110" on="1"/>
        <pt x="671" y="0" on="1"/>
        <pt x="181" y="0" on="1"/>
      </contour>
    </TTGlyph>
    <TTGlyph name="M" xMin="80" yMin="0" xMax="670" yMax="800">
      <contour>
        <pt x="80" y="800" on="1"/>
        <pt x="270" y="800" on="1"/>
        <pt x="373" y="330" on="1"/>
        <pt x="383" y="330" on="1"/>
        <pt x="486" y="800" on="1"/>
        <pt x="670" y="800" on="1"/>
        <pt x="670" y="0" on="1"/>
        <pt x="560" y="0" on="1"/>
        <pt x="560" y="550" on="1"/>
        <pt x="568" y="720" on="1"/>
        <pt x="558" y="720" on="1"/>
        <pt x="456" y="270" on="1"/>
        <pt x="294" y="270" on="1"/>
        <pt x="192" y="720" on="1"/>
        <pt x="182" y="720" on="1"/>
        <pt x="190" y="550" on="1"/>
        <pt x="190" y="0" on="1"/>
        <pt x="80" y="0" on="1"/>
      </contour>
    </TTGlyph>
    <TTGlyph name="N" xMin="100" yMin="0" xMax="650" yMax="800">
      <contour>
        <pt x="100" y="800" on="1"/>
        <pt x="306" y="800" on="1"/>
        <pt x="532" y="70" on="1"/>
        <pt x="542" y="70" on="1"/>
        <pt x="536" y="250" on="1"/>
        <pt x="536" y="800" on="1"/>
        <pt x="650" y="800" on="1"/>
        <pt x="650" y="0" on="1"/>
        <pt x="444" y="0" on="1"/>
        <pt x="218" y="730" on="1"/>
        <pt x="208" y="730" on="1"/>
        <pt x="214" y="550" on="1"/>
        <pt x="214" y="0" on="1"/>
        <pt x="100" y="0" on="1"/>
      </contour>
    </TTGlyph>
    <TTGlyph name="O" xMin="60" yMin="-16" xMax="690" yMax="816">
      <contour>
        <pt x="219" y="-16" on="0"/>
        <pt x="60" y="194" on="0"/>
        <pt x="60" y="400" on="1"/>
        <pt x="60" y="606" on="0"/>
        <pt x="219" y="816" on="0"/>
        <pt x="375" y="816" on="1"/>
        <pt x="531" y="816" on="0"/>
        <pt x="690" y="606" on="0"/>
        <pt x="690" y="400" on="1"/>
        <pt x="690" y="194" on="0"/>
        <pt x="531" y="-16" on="0"/>
        <pt x="375" y="-16" on="1"/>
      </contour>
      <contour>
        <pt x="174" y="243" on="0"/>
        <pt x="272" y="92" on="0"/>
        <pt x="375" y="92" on="1"/>
        <pt x="478" y="92" on="0"/>
        <pt x="576" y="243" on="0"/>
        <pt x="576" y="400" on="1"/>
        <pt x="576" y="557" on="0"/>
        <pt x="478" y="708" on="0"/>
        <pt x="375" y="708" on="1"/>
        <pt x="272" y="708" on="0"/>
        <pt x="174" y="557" on="0"/>
        <pt x="174" y="400" on="1"/>
      </contour>
    </TTGlyph>
    <TTGlyph name="P" xMin="140" yMin="0" xMax="702" yMax="800">
      <contour>
        <pt x="140" y="800" on="1"/>
        <pt x="448" y="800" on="1"/>
        <pt x="566" y="800" on="0"/>
        <pt x="702" y="673" on="0"/>
        <pt x="702" y="564" on="1"/>
        <pt x="702" y="455" on="0"/>
        <pt x="566" y="330" on="0"/>
        <pt x="448" y="330" on="1"/>
        <pt x="254" y="330" on="1"/>
        <pt x="254" y="0" on="1"/>
        <pt x="140" y="0" on="1"/>
      </contour>
      <contour>
        <pt x="452" y="436" on="1"/>
        <pt x="515" y="436" on="0"/>
        <pt x="588" y="504" on="0"/>
        <pt x="588" y="563" on="1"/>
        <pt x="588" y="622" on="0"/>
        <pt x="515" y="690" on="0"/>
        <pt x="452" y="690" on="1"/>
        <pt x="254" y="690" on="1"/>
        <pt x="254" y="436" on="1"/>
      </contour>
    </TTGlyph>
    <TTGlyph name="Q" xMin="60" yMin="-216" xMax="690" yMax="816">
      <contour>
        <pt x="478" y="92" on="0"/>
        <pt x="576" y="243" on="0"/>
        <pt x="576" y="400" on="1"/>
        <pt x="576" y="557" on="0"/>
        <pt x="478" y="708" on="0"/>
        <pt x="375" y="708" on="1"/>
        <pt x="272" y="708" on="0"/>
        <pt x="174" y="557" on="0"/>
        <pt x="174" y="400" on="1"/>
        <pt x="174" y="243" on="0"/>
        <pt x="272" y="92" on="0"/>
        <pt x="375" y="92" on="1"/>
      </contour>
      <contour>
        <pt x="60" y="606" on="0"/>
        <pt x="219" y="816" on="0"/>
        <pt x="375" y="816" on="1"/>
        <pt x="531" y="816" on="0"/>
        <pt x="690" y="606" on="0"/>
        <pt x="690" y="400" on="1"/>
        <pt x="690" y="204" on="0"/>
        <pt x="546" y="-5" on="0"/>
        <pt x="405" y="-15" on="1"/>
        <pt x="650" y="-109" on="1"/>
        <pt x="650" y="-216" on="1"/>
        <pt x="355" y="-103" on="1"/>
        <pt x="355" y="-16" on="1"/>
        <pt x="209" y="-9" on="0"/>
        <pt x="60" y="201" on="0"/>
        <pt x="60" y="400" on="1"/>
      </contour>
    </TTGlyph>
    <TTGlyph name="R" xMin="124" yMin="0" xMax="706" yMax="800">
      <contour>
        <pt x="124" y="800" on="1"/>
        <pt x="432" y="800" on="1"/>
        <pt x="550" y="800" on="0"/>
        <pt x="686" y="676" on="0"/>
        <pt x="686" y="569" on="1"/>
        <pt x="686" y="476" on="0"/>
        <pt x="576" y="359" on="0"/>
        <pt x="477" y="348" on="1"/>
        <pt x="706" y="0" on="1"/>
        <pt x="570" y="0" on="1"/>
        <pt x="353" y="345" on="1"/>
        <pt x="238" y="345" on="1"/>
        <pt x="238" y="0" on="1"/>
        <pt x="124" y="0" on="1"/>
      </contour>
      <contour>
        <pt x="434" y="447" on="1"/>
        <pt x="500" y="447" on="0"/>
        <pt x="572" y="511" on="0"/>
        <pt x="572" y="569" on="1"/>
        <pt x="572" y="627" on="0"/>
        <pt x="500" y="690" on="0"/>
        <pt x="434" y="690" on="1"/>
        <pt x="238" y="690" on="1"/>
        <pt x="238" y="447" on="1"/>
      </contour>
    </TTGlyph>
    <TTGlyph name="S" xMin="88" yMin="-16" xMax="686" yMax="816">
      <contour>
        <pt x="223" y="94" on="0"/>
        <pt x="382" y="94" on="1"/>
        <pt x="459" y="94" on="0"/>
        <pt x="548" y="163" on="0"/>
        <pt x="548" y="224" on="1"/>
        <pt x="548" y="274" on="0"/>
        <pt x="490" y="328" on="0"/>
        <pt x="426" y="335" on="1"/>
        <pt x="324" y="347" on="1"/>
        <pt x="208" y="361" on="0"/>
        <pt x="98" y="471" on="0"/>
        <pt x="98" y="574" on="1"/>
        <pt x="98" y="646" on="0"/>
        <pt x="170" y="756" on="0"/>
        <pt x="300" y="816" on="0"/>
        <pt x="386" y="816" on="1"/>
        <pt x="518" y="816" on="0"/>
        <pt x="674" y="691" on="0"/>
        <pt x="686" y="576" on="1"/>
        <pt x="571" y="576" on="1"/>
        <pt x="562" y="640" on="0"/>
        <pt x="469" y="706" on="0"/>
        <pt x="386" y="706" on="1"/>
        <pt x="305" y="706" on="0"/>
        <pt x="212" y="635" on="0"/>
        <pt x="212" y="574" on="1"/>
        <pt x="212" y="524" on="0"/>
        <pt x="270" y="470" on="0"/>
        <pt x="334" y="463" on="1"/>
        <pt x="436" y="451" on="1"/>
        <pt x="552" y="437" on="0"/>
        <pt x="662" y="327" on="0"/>
        <pt x="662" y="224" on="1"/>
        <pt x="662" y="153" on="0"/>
        <pt x="592" y="44" on="0"/>
        <pt x="465" y="-16" on="0"/>
        <pt x="382" y="-16" on="1"/>
        <pt x="254" y="-16" on="0"/>
        <pt x="101" y="98" on="0"/>
        <pt x="88" y="204" on="1"/>
        <pt x="205" y="204" on="1"/>
      </contour>
    </TTGlyph>
    <TTGlyph name="T" xMin="80" yMin="0" xMax="670" yMax="800">
      <contour>
        <pt x="318" y="690" on="1"/>
        <pt x="80" y="690" on="1"/>
        <pt x="80" y="800" on="1"/>
        <pt x="670" y="800" on="1"/>
        <pt x="670" y="690" on="1"/>
        <pt x="432" y="690" on="1"/>
        <pt x="432" y="0" on="1"/>
        <pt x="318" y="0" on="1"/>
      </contour>
    </TTGlyph>
    <TTGlyph name="U" xMin="90" yMin="-16" xMax="660" yMax="800">
      <contour>
        <pt x="204" y="800" on="1"/>
        <pt x="204" y="280" on="1"/>
        <pt x="204" y="191" on="0"/>
        <pt x="293" y="94" on="0"/>
        <pt x="375" y="94" on="1"/>
        <pt x="457" y="94" on="0"/>
        <pt x="546" y="191" on="0"/>
        <pt x="546" y="280" on="1"/>
        <pt x="546" y="800" on="1"/>
        <pt x="660" y="800" on="1"/>
        <pt x="660" y="280" on="1"/>
        <pt x="660" y="189" on="0"/>
        <pt x="591" y="55" on="0"/>
        <pt x="463" y="-16" on="0"/>
        <pt x="375" y="-16" on="1"/>
        <pt x="287" y="-16" on="0"/>
        <pt x="159" y="55" on="0"/>
        <pt x="90" y="189" on="0"/>
        <pt x="90" y="280" on="1"/>
        <pt x="90" y="800" on="1"/>
      </contour>
    </TTGlyph>
    <TTGlyph name="V" xMin="56" yMin="0" xMax="694" yMax="800">
      <contour>
        <pt x="378" y="64" on="1"/>
        <pt x="580" y="800" on="1"/>
        <pt x="694" y="800" on="1"/>
        <pt x="471" y="0" on="1"/>
        <pt x="279" y="0" on="1"/>
        <pt x="56" y="800" on="1"/>
        <pt x="177" y="800" on="1"/>
      </contour>
    </TTGlyph>
    <TTGlyph name="W" xMin="24" yMin="0" xMax="726" yMax="800">
      <contour>
        <pt x="226" y="132" on="1"/>
        <pt x="301" y="600" on="1"/>
        <pt x="457" y="600" on="1"/>
        <pt x="530" y="134" on="1"/>
        <pt x="608" y="800" on="1"/>
        <pt x="726" y="800" on="1"/>
        <pt x="615" y="0" on="1"/>
        <pt x="455" y="0" on="1"/>
        <pt x="377" y="489" on="1"/>
        <pt x="297" y="0" on="1"/>
        <pt x="135" y="0" on="1"/>
        <pt x="24" y="800" on="1"/>
        <pt x="148" y="800" on="1"/>
      </contour>
    </TTGlyph>
    <TTGlyph name="X" xMin="53" yMin="0" xMax="697" yMax="800">
      <contour>
        <pt x="375" y="444" on="1"/>
        <pt x="568" y="800" on="1"/>
        <pt x="697" y="800" on="1"/>
        <pt x="470" y="386" on="1"/>
        <pt x="681" y="0" on="1"/>
        <pt x="545" y="0" on="1"/>
        <pt x="375" y="327" on="1"/>
        <pt x="200" y="0" on="1"/>
        <pt x="69" y="0" on="1"/>
        <pt x="282" y="386" on="1"/>
        <pt x="53" y="800" on="1"/>
        <pt x="187" y="800" on="1"/>
      </contour>
    </TTGlyph>
    <TTGlyph name="Y" xMin="43" yMin="0" xMax="707" yMax="800">
      <contour>
        <pt x="375" y="458" on="1"/>
        <pt x="578" y="800" on="1"/>
        <pt x="707" y="800" on="1"/>
        <pt x="432" y="348" on="1"/>
        <pt x="432" y="0" on="1"/>
        <pt x="318" y="0" on="1"/>
        <pt x="318" y="348" on="1"/>
        <pt x="43" y="800" on="1"/>
        <pt x="174" y="800" on="1"/>
      </contour>
    </TTGlyph>
    <TTGlyph name="Z" xMin="110" yMin="0" xMax="640" yMax="800">
      <contour>
        <pt x="110" y="196" on="1"/>
        <pt x="573" y="690" on="1"/>
        <pt x="110" y="690" on="1"/>
        <pt x="110" y="800" on="1"/>
        <pt x="640" y="800" on="1"/>
        <pt x="640" y="604" on="1"/>
        <pt x="177" y="110" on="1"/>
        <pt x="640" y="110" on="1"/>
        <pt x="640" y="0" on="1"/>
        <pt x="110" y="0" on="1"/>
      </contour>
    </TTGlyph>
    <TTGlyph name="_part.multiply" xMin="120" yMin="95" xMax="630" yMax="605">
      <contour>
        <pt x="120" y="539" on="1"/>
        <pt x="186" y="605" on="1"/>
        <pt x="630" y="161" on="1"/>
        <pt x="564" y="95" on="1"/>
      </contour>
    </TTGlyph>
    <TTGlyph name="a" xMin="72" yMin="-16" xMax="618" yMax="616">
      <contour>
        <pt x="84" y="495" on="0"/>
        <pt x="239" y="616" on="0"/>
        <pt x="361" y="616" on="1"/>
        <pt x="484" y="616" on="0"/>
        <pt x="618" y="503" on="0"/>
        <pt x="618" y="400" on="1"/>
        <pt x="618" y="0" on="1"/>
        <pt x="508" y="0" on="1"/>
        <pt x="508" y="74" on="1"/>
        <pt x="478" y="74" on="1"/>
        <pt x="459" y="31" on="0"/>
        <pt x="370" y="-16" on="0"/>
        <pt x="306" y="-16" on="1"/>
        <pt x="214" y="-16" on="0"/>
        <pt x="108" y="78" on="0"/>
        <pt x="108" y="160" on="1"/>
        <pt x="108" y="233" on="0"/>
        <pt x="206" y="328" on="0"/>
        <pt x="297" y="342" on="1"/>
        <pt x="508" y="374" on="1"/>
        <pt x="508" y="380" on="1"/>
        <pt x="508" y="445" on="0"/>
        <pt x="434" y="512" on="0"/>
        <pt x="361" y="512" on="1"/>
        <pt x="286" y="512" on="0"/>
        <pt x="195" y="449" on="0"/>
        <pt x="186" y="390" on="1"/>
        <pt x="72" y="390" on="1"/>
      </contour>
      <contour>
        <pt x="222" y="124" on="0"/>
        <pt x="276" y="84" on="0"/>
        <pt x="328" y="84" on="1"/>
        <pt x="378" y="84" on="0"/>
        <pt x="460" y="130" on="0"/>
        <pt x="508" y="210" on="0"/>
        <pt x="508" y="258" on="1"/>
        <pt x="508" y="275" on="1"/>
        <pt x="312" y="245" on="1"/>
        <pt x="222" y="231" on="0"/>
        <pt x="222" y="162" on="1"/>
      </contour>
    </TTGlyph>
    <TTGlyph name="ampersand" xMin="90" yMin="-24" xMax="660" yMax="816">
      <contour>
        <pt x="90" y="286" on="0"/>
        <pt x="169" y="395" on="0"/>
        <pt x="240" y="447" on="1"/>
        <pt x="198" y="498" on="0"/>
        <pt x="160" y="585" on="0"/>
        <pt x="160" y="628" on="1"/>
        <pt x="160" y="716" on="0"/>
        <pt x="254" y="816" on="0"/>
        <pt x="336" y="816" on="1"/>
        <pt x="418" y="816" on="0"/>
        <pt x="512" y="716" on="0"/>
        <pt x="512" y="630" on="1"/>
        <pt x="512" y="566" on="0"/>
        <pt x="451" y="472" on="0"/>
        <pt x="396" y="429" on="1"/>
        <pt x="510" y="303" on="1"/>
        <pt x="520" y="348" on="0"/>
        <pt x="524" y="397" on="1"/>
        <pt x="640" y="397" on="1"/>
        <pt x="628" y="286" on="0"/>
        <pt x="598" y="205" on="1"/>
        <pt x="660" y="136" on="1"/>
        <pt x="660" y="-24" on="1"/>
        <pt x="546" y="103" on="1"/>
        <pt x="463" y="-16" on="0"/>
        <pt x="316" y="-16" on="1"/>
        <pt x="249" y="-16" on="0"/>
        <pt x="146" y="39" on="0"/>
        <pt x="90" y="138" on="0"/>
        <pt x="90" y="203" on="1"/>
      </contour>
      <contour>
        <pt x="206" y="156" on="0"/>
        <pt x="267" y="94" on="0"/>
        <pt x="316" y="94" on="1"/>
        <pt x="416" y="94" on="0"/>
        <pt x="469" y="189" on="1"/>
        <pt x="311" y="366" on="1"/>
        <pt x="260" y="328" on="0"/>
        <pt x="206" y="255" on="0"/>
        <pt x="206" y="206" on="1"/>
      </contour>
      <contour>
        <pt x="276" y="593" on="0"/>
        <pt x="297" y="539" on="0"/>
        <pt x="320" y="514" on="1"/>
        <pt x="325" y="509" on="1"/>
        <pt x="359" y="536" on="0"/>
        <pt x="396" y="594" on="0"/>
        <pt x="396" y="630" on="1"/>
        <pt x="396" y="665" on="0"/>
        <pt x="364" y="706" on="0"/>
        <pt x="336" y="706" on="1"/>
        <pt x="308" y="706" on="0"/>
        <pt x="276" y="664" on="0"/>
        <pt x="276" y="628" on="1"/>
      </contour>
    </TTGlyph>
    <TTGlyph name="approxequal" xMin="80" yMin="106" xMax="670" yMax="594">
      <component glyphName="asciitilde" x="0" y="129" flags="0x4"/>
      <component glyphName="asciitilde" x="0" y="-129" flags="0x4"/>
    </TTGlyph>
    <TTGlyph name="approxequal.case" xMin="80" yMin="156" xMax="670" yMax="644">
      <component glyphName="approxequal" x="0" y="50" flags="0x4"/>
    </TTGlyph>
    <TTGlyph name="asciicircum" xMin="126" yMin="500" xMax="624" yMax="816">
      <contour>
        <pt x="301" y="816" on="1"/>
        <pt x="449" y="816" on="1"/>
        <pt x="624" y="500" on="1"/>
        <pt x="516" y="500" on="1"/>
        <pt x="375" y="761" on="1"/>
        <pt x="234" y="500" on="1"/>
        <pt x="126" y="500" on="1"/>
      </contour>
    </TTGlyph>
    <TTGlyph name="asciitilde" xMin="80" yMin="235" xMax="670" yMax="465">
      <contour>
        <pt x="458" y="235" on="0"/>
        <pt x="384" y="276" on="0"/>
        <pt x="341" y="314" on="1"/>
        <pt x="307" y="343" on="0"/>
        <pt x="265" y="369" on="0"/>
        <pt x="240" y="369" on="1"/>
        <pt x="214" y="369" on="0"/>
        <pt x="178" y="326" on="0"/>
        <pt x="174" y="289" on="1"/>
        <pt x="80" y="289" on="1"/>
        <pt x="89" y="371" on="0"/>
        <pt x="175" y="465" on="0"/>
        <pt x="240" y="465" on="1"/>
        <pt x="292" y="465" on="0"/>
        <pt x="366" y="424" on="0"/>
        <pt x="409" y="386" on="1"/>
        <pt x="443" y="357" on="0"/>
        <pt x="485" y="331" on="0"/>
        <pt x="510" y="331" on="1"/>
        <pt x="536" y="331" on="0"/>
        <pt x="572" y="374" on="0"/>
        <pt x="576" y="411" on="1"/>
        <pt x="670" y="411" on="1"/>
        <pt x="661" y="329" on="0"/>
        <pt x="575" y="235" on="0"/>
        <pt x="510" y="235" on="1"/>
      </contour>
    </TTGlyph>
    <TTGlyph name="asciitilde.case" xMin="80" yMin="285" xMax="670" yMax="515">
      <component glyphName="asciitilde" x="0" y="50" flags="0x4"/>
    </TTGlyph>
    <TTGlyph name="asterisk" xMin="121" yMin="332" xMax="629" yMax="816">
      <contour>
        <pt x="435" y="816" on="1"/>
        <pt x="418" y="627" on="1"/>
        <pt x="592" y="702" on="1"/>
        <pt x="629" y="588" on="1"/>
        <pt x="444" y="545" on="1"/>
        <pt x="569" y="403" on="1"/>
        <pt x="472" y="332" on="1"/>
        <pt x="375" y="495" on="1"/>
        <pt x="278" y="332" on="1"/>
        <pt x="181" y="403" on="1"/>
        <pt x="306" y="545" on="1"/>
        <pt x="121" y="588" on="1"/>
        <pt x="158" y="702" on="1"/>
        <pt x="332" y="627" on="1"/>
        <pt x="315" y="816" on="1"/>
      </contour>
    </TTGlyph>
    <TTGlyph name="at" xMin="60" yMin="-134" xMax="670" yMax="816">
      <contour>
        <pt x="232" y="-134" on="0"/>
        <pt x="60" y="105" on="0"/>
        <pt x="60" y="340" on="1"/>
        <pt x="60" y="575" on="0"/>
        <pt x="232" y="816" on="0"/>
        <pt x="400" y="816" on="1"/>
        <pt x="534" y="816" on="0"/>
        <pt x="670" y="661" on="0"/>
        <pt x="670" y="509" on="1"/>
        <pt x="670" y="111" on="1"/>
        <pt x="592" y="111" on="1"/>
        <pt x="592" y="175" on="1"/>
        <pt x="562" y="175" on="1"/>
        <pt x="542" y="95" on="0"/>
        <pt x="446" y="95" on="1"/>
        <pt x="362" y="95" on="0"/>
        <pt x="276" y="219" on="0"/>
        <pt x="276" y="340" on="1"/>
        <pt x="276" y="461" on="0"/>
        <pt x="362" y="585" on="0"/>
        <pt x="446" y="585" on="1"/>
        <pt x="532" y="585" on="0"/>
        <pt x="552" y="505" on="1"/>
        <pt x="582" y="505" on="1"/>
        <pt x="582" y="509" on="1"/>
        <pt x="582" y="618" on="0"/>
        <pt x="490" y="730" on="0"/>
        <pt x="400" y="730" on="1"/>
        <pt x="276" y="730" on="0"/>
        <pt x="150" y="533" on="0"/>
        <pt x="150" y="340" on="1"/>
        <pt x="150" y="147" on="0"/>
        <pt x="276" y="-50" on="0"/>
        <pt x="400" y="-50" on="1"/>
        <pt x="504" y="-50" on="0"/>
        <pt x="562" y="-14" on="1"/>
        <pt x="562" y="-96" on="1"/>
        <pt x="503" y="-134" on="0"/>
        <pt x="400" y="-134" on="1"/>
      </contour>
      <contour>
        <pt x="366" y="183" on="0"/>
        <pt x="476" y="183" on="1"/>
        <pt x="586" y="183" on="0"/>
        <pt x="586" y="340" on="1"/>
        <pt x="586" y="497" on="0"/>
        <pt x="476" y="497" on="1"/>
        <pt x="366" y="497" on="0"/>
        <pt x="366" y="340" on="1"/>
      </contour>
    </TTGlyph>
    <TTGlyph name="b" xMin="110" yMin="-16" xMax="686" yMax="848">
      <contour>
        <pt x="353" y="-16" on="0"/>
        <pt x="263" y="41" on="0"/>
        <pt x="250" y="93" on="1"/>
        <pt x="220" y="93" on="1"/>
        <pt x="220" y="0" on="1"/>
        <pt x="110" y="0" on="1"/>
        <pt x="110" y="848" on="1"/>
        <pt x="220" y="848" on="1"/>
        <pt x="220" y="507" on="1"/>
        <pt x="250" y="507" on="1"/>
        <pt x="263" y="559" on="0"/>
        <pt x="353" y="616" on="0"/>
        <pt x="424" y="616" on="1"/>
        <pt x="502" y="616" on="0"/>
        <pt x="621" y="537" on="0"/>
        <pt x="686" y="394" on="0"/>
        <pt x="686" y="300" on="1"/>
        <pt x="686" y="206" on="0"/>
        <pt x="621" y="63" on="0"/>
        <pt x="502" y="-16" on="0"/>
        <pt x="424" y="-16" on="1"/>
      </contour>
      <contour>
        <pt x="214" y="200" on="0"/>
        <pt x="310" y="86" on="0"/>
        <pt x="394" y="86" on="1"/>
        <pt x="478" y="86" on="0"/>
        <pt x="574" y="200" on="0"/>
        <pt x="574" y="300" on="1"/>
        <pt x="574" y="400" on="0"/>
        <pt x="478" y="514" on="0"/>
        <pt x="394" y="514" on="1"/>
        <pt x="310" y="514" on="0"/>
        <pt x="214" y="400" on="0"/>
        <pt x="214" y="300" on="1"/>
      </contour>
    </TTGlyph>
    <TTGlyph name="backslash" xMin="130" yMin="-170" xMax="620" yMax="848">
      <contour>
        <pt x="240" y="848" on="1"/>
        <pt x="620" y="-170" on="1"/>
        <pt x="510" y="-170" on="1"/>
        <pt x="130" y="848" on="1"/>
      </contour>
    </TTGlyph>
    <TTGlyph name="bar" xMin="328" yMin="-60" xMax="422" yMax="860">
      <contour>
        <pt x="422" y="-60" on="1"/>
        <pt x="328" y="-60" on="1"/>
        <pt x="328" y="860" on="1"/>
        <pt x="422" y="860" on="1"/>
      </contour>
    </TTGlyph>
    <TTGlyph name="braceleft" xMin="262" yMin="-160" xMax="577" yMax="920">
      <contour>
        <pt x="513" y="818" on="0"/>
        <pt x="439" y="762" on="0"/>
        <pt x="439" y="718" on="1"/>
        <pt x="439" y="687" on="0"/>
        <pt x="449" y="625" on="1"/>
        <pt x="459" y="563" on="0"/>
        <pt x="459" y="532" on="1"/>
        <pt x="459" y="466" on="0"/>
        <pt x="397" y="395" on="0"/>
        <pt x="332" y="387" on="1"/>
        <pt x="332" y="373" on="1"/>
        <pt x="397" y="365" on="0"/>
        <pt x="459" y="294" on="0"/>
        <pt x="459" y="228" on="1"/>
        <pt x="459" y="197" on="0"/>
        <pt x="449" y="135" on="1"/>
        <pt x="439" y="73" on="0"/>
        <pt x="439" y="42" on="1"/>
        <pt x="439" y="-2" on="0"/>
        <pt x="513" y="-58" on="0"/>
        <pt x="577" y="-64" on="1"/>
        <pt x="577" y="-160" on="1"/>
        <pt x="506" y="-155" on="0"/>
        <pt x="398" y="-99" on="0"/>
        <pt x="339" y="-6" on="0"/>
        <pt x="339" y="52" on="1"/>
        <pt x="339" y="76" on="0"/>
        <pt x="349" y="128" on="1"/>
        <pt x="359" y="178" on="0"/>
        <pt x="359" y="203" on="1"/>
        <pt x="359" y="266" on="0"/>
        <pt x="313" y="323" on="0"/>
        <pt x="262" y="322" on="1"/>
        <pt x="262" y="438" on="1"/>
        <pt x="313" y="437" on="0"/>
        <pt x="359" y="494" on="0"/>
        <pt x="359" y="557" on="1"/>
        <pt x="359" y="581" on="0"/>
        <pt x="349" y="633" on="1"/>
        <pt x="339" y="683" on="0"/>
        <pt x="339" y="708" on="1"/>
        <pt x="339" y="766" on="0"/>
        <pt x="398" y="859" on="0"/>
        <pt x="506" y="915" on="0"/>
        <pt x="577" y="920" on="1"/>
        <pt x="577" y="824" on="1"/>
      </contour>
    </TTGlyph>
    <TTGlyph name="braceright" xMin="173" yMin="-160" xMax="488" yMax="920">
      <contour>
        <pt x="244" y="915" on="0"/>
        <pt x="352" y="859" on="0"/>
        <pt x="411" y="766" on="0"/>
        <pt x="411" y="708" on="1"/>
        <pt x="411" y="683" on="0"/>
        <pt x="401" y="633" on="1"/>
        <pt x="391" y="581" on="0"/>
        <pt x="391" y="557" on="1"/>
        <pt x="391" y="494" on="0"/>
        <pt x="437" y="437" on="0"/>
        <pt x="488" y="438" on="1"/>
        <pt x="488" y="322" on="1"/>
        <pt x="437" y="323" on="0"/>
        <pt x="391" y="266" on="0"/>
        <pt x="391" y="203" on="1"/>
        <pt x="391" y="178" on="0"/>
        <pt x="401" y="128" on="1"/>
        <pt x="411" y="76" on="0"/>
        <pt x="411" y="52" on="1"/>
        <pt x="411" y="-6" on="0"/>
        <pt x="352" y="-99" on="0"/>
        <pt x="244" y="-155" on="0"/>
        <pt x="173" y="-160" on="1"/>
        <pt x="173" y="-64" on="1"/>
        <pt x="237" y="-58" on="0"/>
        <pt x="311" y="-2" on="0"/>
        <pt x="311" y="42" on="1"/>
        <pt x="311" y="73" on="0"/>
        <pt x="301" y="135" on="1"/>
        <pt x="291" y="197" on="0"/>
        <pt x="291" y="228" on="1"/>
        <pt x="291" y="294" on="0"/>
        <pt x="353" y="365" on="0"/>
        <pt x="418" y="373" on="1"/>
        <pt x="418" y="387" on="1"/>
        <pt x="353" y="395" on="0"/>
        <pt x="291" y="466" on="0"/>
        <pt x="291" y="532" on="1"/>
        <pt x="291" y="563" on="0"/>
        <pt x="301" y="625" on="1"/>
        <pt x="311" y="687" on="0"/>
        <pt x="311" y="718" on="1"/>
        <pt x="311" y="762" on="0"/>
        <pt x="237" y="818" on="0"/>
        <pt x="173" y="824" on="1"/>
        <pt x="173" y="920" on="1"/>
      </contour>
    </TTGlyph>
    <TTGlyph name="bracketleft" xMin="327" yMin="-150" xMax="577" yMax="910">
      <contour>
        <pt x="577" y="816" on="1"/>
        <pt x="425" y="816" on="1"/>
        <pt x="425" y="-56" on="1"/>
        <pt x="577" y="-56" on="1"/>
        <pt x="577" y="-150" on="1"/>
        <pt x="327" y="-150" on="1"/>
        <pt x="327" y="910" on="1"/>
        <pt x="577" y="910" on="1"/>
      </contour>
    </TTGlyph>
    <TTGlyph name="bracketright" xMin="173" yMin="-150" xMax="423" yMax="910">
      <contour>
        <pt x="423" y="910" on="1"/>
        <pt x="423" y="-150" on="1"/>
        <pt x="173" y="-150" on="1"/>
        <pt x="173" y="-56" on="1"/>
        <pt x="325" y="-56" on="1"/>
        <pt x="325" y="816" on="1"/>
        <pt x="173" y="816" on="1"/>
        <pt x="173" y="910" on="1"/>
      </contour>
    </TTGlyph>
    <TTGlyph name="bullet" xMin="175" yMin="150" xMax="575" yMax="550">
      <contour>
        <pt x="279" y="150" on="0"/>
        <pt x="175" y="254" on="0"/>
        <pt x="175" y="350" on="1"/>
        <pt x="175" y="446" on="0"/>
        <pt x="279" y="550" on="0"/>
        <pt x="375" y="550" on="1"/>
        <pt x="471" y="550" on="0"/>
        <pt x="575" y="446" on="0"/>
        <pt x="575" y="350" on="1"/>
        <pt x="575" y="254" on="0"/>
        <pt x="471" y="150" on="0"/>
        <pt x="375" y="150" on="1"/>
      </contour>
    </TTGlyph>
    <TTGlyph name="c" xMin="98" yMin="-16" xMax="674" yMax="616">
      <contour>
        <pt x="302" y="-16" on="0"/>
        <pt x="170" y="62" on="0"/>
        <pt x="98" y="204" on="0"/>
        <pt x="98" y="297" on="1"/>
        <pt x="98" y="392" on="0"/>
        <pt x="173" y="536" on="0"/>
        <pt x="308" y="616" on="0"/>
        <pt x="397" y="616" on="1"/>
        <pt x="473" y="616" on="0"/>
        <pt x="595" y="554" on="0"/>
        <pt x="668" y="442" on="0"/>
        <pt x="674" y="368" on="1"/>
        <pt x="567" y="368" on="1"/>
        <pt x="558" y="435" on="0"/>
        <pt x="465" y="512" on="0"/>
        <pt x="393" y="512" on="1"/>
        <pt x="307" y="512" on="0"/>
        <pt x="208" y="397" on="0"/>
        <pt x="208" y="297" on="1"/>
        <pt x="208" y="200" on="0"/>
        <pt x="305" y="88" on="0"/>
        <pt x="389" y="88" on="1"/>
        <pt x="454" y="88" on="0"/>
        <pt x="541" y="156" on="0"/>
        <pt x="551" y="214" on="1"/>
        <pt x="658" y="214" on="1"/>
        <pt x="651" y="146" on="0"/>
        <pt x="579" y="41" on="0"/>
        <pt x="462" y="-16" on="0"/>
        <pt x="389" y="-16" on="1"/>
      </contour>
    </TTGlyph>
    <TTGlyph name="cent" xMin="98" yMin="-100" xMax="674" yMax="700">
      <contour>
        <pt x="347" y="-13" on="1"/>
        <pt x="272" y="-4" on="0"/>
        <pt x="159" y="77" on="0"/>
        <pt x="98" y="211" on="0"/>
        <pt x="98" y="297" on="1"/>
        <pt x="98" y="383" on="0"/>
        <pt x="159" y="518" on="0"/>
        <pt x="272" y="602" on="0"/>
        <pt x="347" y="612" on="1"/>
        <pt x="347" y="700" on="1"/>
        <pt x="427" y="700" on="1"/>
        <pt x="427" y="615" on="1"/>
        <pt x="531" y="606" on="0"/>
        <pt x="666" y="472" on="0"/>
        <pt x="674" y="368" on="1"/>
        <pt x="567" y="368" on="1"/>
        <pt x="559" y="426" on="0"/>
        <pt x="485" y="501" on="0"/>
        <pt x="427" y="510" on="1"/>
        <pt x="427" y="91" on="1"/>
        <pt x="477" y="100" on="0"/>
        <pt x="543" y="165" on="0"/>
        <pt x="551" y="214" on="1"/>
        <pt x="658" y="214" on="1"/>
        <pt x="648" y="120" on="0"/>
        <pt x="523" y="-3" on="0"/>
        <pt x="427" y="-14" on="1"/>
        <pt x="427" y="-100" on="1"/>
        <pt x="347" y="-100" on="1"/>
      </contour>
      <contour>
        <pt x="208" y="213" on="0"/>
        <pt x="281" y="106" on="0"/>
        <pt x="347" y="92" on="1"/>
        <pt x="347" y="507" on="1"/>
        <pt x="282" y="493" on="0"/>
        <pt x="208" y="382" on="0"/>
        <pt x="208" y="297" on="1"/>
      </contour>
    </TTGlyph>
    <TTGlyph name="cent.bold" xMin="98" yMin="-100" xMax="674" yMax="700">
      <contour>
        <pt x="427" y="700" on="1"/>
        <pt x="427" y="615" on="1"/>
        <pt x="531" y="606" on="0"/>
        <pt x="666" y="472" on="0"/>
        <pt x="674" y="368" on="1"/>
        <pt x="567" y="368" on="1"/>
        <pt x="558" y="435" on="0"/>
        <pt x="465" y="512" on="0"/>
        <pt x="393" y="512" on="1"/>
        <pt x="307" y="512" on="0"/>
        <pt x="208" y="397" on="0"/>
        <pt x="208" y="297" on="1"/>
        <pt x="208" y="200" on="0"/>
        <pt x="305" y="88" on="0"/>
        <pt x="389" y="88" on="1"/>
        <pt x="454" y="88" on="0"/>
        <pt x="541" y="156" on="0"/>
        <pt x="551" y="214" on="1"/>
        <pt x="658" y="214" on="1"/>
        <pt x="648" y="120" on="0"/>
        <pt x="523" y="-3" on="0"/>
        <pt x="427" y="-14" on="1"/>
        <pt x="427" y="-100" on="1"/>
        <pt x="347" y="-100" on="1"/>
        <pt x="347" y="-13" on="1"/>
        <pt x="272" y="-4" on="0"/>
        <pt x="159" y="77" on="0"/>
        <pt x="98" y="211" on="0"/>
        <pt x="98" y="297" on="1"/>
        <pt x="98" y="383" on="0"/>
        <pt x="159" y="518" on="0"/>
        <pt x="272" y="602" on="0"/>
        <pt x="347" y="612" on="1"/>
        <pt x="347" y="700" on="1"/>
      </contour>
    </TTGlyph>
    <TTGlyph name="colon" xMin="276" yMin="-8" xMax="474" yMax="608">
      <component glyphName="period" x="0" y="0" flags="0x0"/>
      <component glyphName="period" x="0" y="428" flags="0x4"/>
    </TTGlyph>
    <TTGlyph name="colon.case" xMin="276" yMin="92" xMax="474" yMax="708">
      <component glyphName="colon" x="0" y="100" flags="0x4"/>
    </TTGlyph>
    <TTGlyph name="comma" xMin="262" yMin="-180" xMax="484" yMax="180">
      <contour>
        <pt x="328" y="-8" on="0"/>
        <pt x="276" y="41" on="0"/>
        <pt x="276" y="86" on="1"/>
        <pt x="276" y="131" on="0"/>
        <pt x="328" y="180" on="0"/>
        <pt x="375" y="180" on="1"/>
        <pt x="430" y="180" on="0"/>
        <pt x="484" y="119" on="0"/>
        <pt x="484" y="56" on="1"/>
        <pt x="484" y="-19" on="0"/>
        <pt x="452" y="-134" on="0"/>
        <pt x="418" y="-180" on="1"/>
        <pt x="262" y="-180" on="1"/>
        <pt x="324" y="-140" on="0"/>
        <pt x="395" y="-55" on="0"/>
        <pt x="407" y="-5" on="1"/>
        <pt x="392" y="-8" on="0"/>
        <pt x="375" y="-8" on="1"/>
      </contour>
    </TTGlyph>
    <TTGlyph name="copyright" xMin="60" yMin="85" xMax="690" yMax="715">
      <contour>
        <pt x="288" y="85" on="0"/>
        <pt x="144" y="169" on="0"/>
        <pt x="60" y="313" on="0"/>
        <pt x="60" y="400" on="1"/>
        <pt x="60" y="487" on="0"/>
        <pt x="144" y="631" on="0"/>
        <pt x="288" y="715" on="0"/>
        <pt x="375" y="715" on="1"/>
        <pt x="462" y="715" on="0"/>
        <pt x="606" y="631" on="0"/>
        <pt x="690" y="487" on="0"/>
        <pt x="690" y="400" on="1"/>
        <pt x="690" y="313" on="0"/>
        <pt x="606" y="169" on="0"/>
        <pt x="462" y="85" on="0"/>
        <pt x="375" y="85" on="1"/>
      </contour>
      <contour>
        <pt x="128" y="329" on="0"/>
        <pt x="192" y="217" on="0"/>
        <pt x="304" y="153" on="0"/>
        <pt x="375" y="153" on="1"/>
        <pt x="446" y="153" on="0"/>
        <pt x="558" y="217" on="0"/>
        <pt x="622" y="329" on="0"/>
        <pt x="622" y="400" on="1"/>
        <pt x="622" y="471" on="0"/>
        <pt x="558" y="583" on="0"/>
        <pt x="446" y="647" on="0"/>
        <pt x="375" y="647" on="1"/>
        <pt x="304" y="647" on="0"/>
        <pt x="192" y="583" on="0"/>
        <pt x="128" y="471" on="0"/>
        <pt x="128" y="400" on="1"/>
      </contour>
      <contour>
        <pt x="220" y="475" on="0"/>
        <pt x="307" y="567" on="0"/>
        <pt x="378" y="567" on="1"/>
        <pt x="439" y="567" on="0"/>
        <pt x="523" y="492" on="0"/>
        <pt x="531" y="431" on="1"/>
        <pt x="461" y="431" on="1"/>
        <pt x="456" y="463" on="0"/>
        <pt x="411" y="500" on="0"/>
        <pt x="378" y="500" on="1"/>
        <pt x="336" y="500" on="0"/>
        <pt x="288" y="447" on="0"/>
        <pt x="288" y="400" on="1"/>
        <pt x="288" y="357" on="0"/>
        <pt x="337" y="303" on="0"/>
        <pt x="377" y="303" on="1"/>
        <pt x="407" y="303" on="0"/>
        <pt x="446" y="334" on="0"/>
        <pt x="449" y="359" on="1"/>
        <pt x="519" y="359" on="1"/>
        <pt x="514" y="306" on="0"/>
        <pt x="434" y="236" on="0"/>
        <pt x="377" y="236" on="1"/>
        <pt x="332" y="236" on="0"/>
        <pt x="260" y="278" on="0"/>
        <pt x="220" y="353" on="0"/>
        <pt x="220" y="400" on="1"/>
      </contour>
    </TTGlyph>
    <TTGlyph name="currency" xMin="120" yMin="95" xMax="630" yMax="605">
      <contour>
        <pt x="310" y="140" on="0"/>
        <pt x="258" y="176" on="1"/>
        <pt x="177" y="95" on="1"/>
        <pt x="120" y="152" on="1"/>
        <pt x="201" y="233" on="1"/>
        <pt x="165" y="285" on="0"/>
        <pt x="165" y="350" on="1"/>
        <pt x="165" y="415" on="0"/>
        <pt x="201" y="467" on="1"/>
        <pt x="120" y="548" on="1"/>
        <pt x="177" y="605" on="1"/>
        <pt x="258" y="524" on="1"/>
        <pt x="310" y="560" on="0"/>
        <pt x="375" y="560" on="1"/>
        <pt x="440" y="560" on="0"/>
        <pt x="492" y="524" on="1"/>
        <pt x="573" y="605" on="1"/>
        <pt x="630" y="548" on="1"/>
        <pt x="549" y="467" on="1"/>
        <pt x="585" y="415" on="0"/>
        <pt x="585" y="350" on="1"/>
        <pt x="585" y="285" on="0"/>
        <pt x="549" y="233" on="1"/>
        <pt x="630" y="152" on="1"/>
        <pt x="573" y="95" on="1"/>
        <pt x="492" y="176" on="1"/>
        <pt x="440" y="140" on="0"/>
        <pt x="375" y="140" on="1"/>
      </contour>
      <contour>
        <pt x="255" y="301" on="0"/>
        <pt x="326" y="230" on="0"/>
        <pt x="375" y="230" on="1"/>
        <pt x="425" y="230" on="0"/>
        <pt x="495" y="301" on="0"/>
        <pt x="495" y="350" on="1"/>
        <pt x="495" y="400" on="0"/>
        <pt x="425" y="470" on="0"/>
        <pt x="375" y="470" on="1"/>
        <pt x="326" y="470" on="0"/>
        <pt x="255" y="400" on="0"/>
        <pt x="255" y="350" on="1"/>
      </contour>
    </TTGlyph>
    <TTGlyph name="d" xMin="64" yMin="-16" xMax="640" yMax="848">
      <contour>
        <pt x="248" y="-16" on="0"/>
        <pt x="129" y="63" on="0"/>
        <pt x="64" y="206" on="0"/>
        <pt x="64" y="300" on="1"/>
        <pt x="64" y="394" on="0"/>
        <pt x="129" y="537" on="0"/>
        <pt x="248" y="616" on="0"/>
        <pt x="326" y="616" on="1"/>
        <pt x="397" y="616" on="0"/>
        <pt x="487" y="559" on="0"/>
        <pt x="500" y="507" on="1"/>
        <pt x="530" y="507" on="1"/>
        <pt x="530" y="848" on="1"/>
        <pt x="640" y="848" on="1"/>
        <pt x="640" y="0" on="1"/>
        <pt x="530" y="0" on="1"/>
        <pt x="530" y="93" on="1"/>
        <pt x="500" y="93" on="1"/>
        <pt x="487" y="41" on="0"/>
        <pt x="397" y="-16" on="0"/>
        <pt x="326" y="-16" on="1"/>
      </contour>
      <contour>
        <pt x="176" y="200" on="0"/>
        <pt x="272" y="86" on="0"/>
        <pt x="356" y="86" on="1"/>
        <pt x="440" y="86" on="0"/>
        <pt x="536" y="200" on="0"/>
        <pt x="536" y="300" on="1"/>
        <pt x="536" y="400" on="0"/>
        <pt x="440" y="514" on="0"/>
        <pt x="356" y="514" on="1"/>
        <pt x="272" y="514" on="0"/>
        <pt x="176" y="400" on="0"/>
        <pt x="176" y="300" on="1"/>
      </contour>
    </TTGlyph>
    <TTGlyph name="divide" xMin="90" yMin="54" xMax="660" yMax="646">
      <component glyphName="minus" x="0" y="0" flags="0x0"/>
      <component glyphName="uni0307" x="291" y="-202" flags="0x4"/>
      <component glyphName="uni0307" x="291" y="-638" flags="0x4"/>
    </TTGlyph>
    <TTGlyph name="divide.case" xMin="90" yMin="104" xMax="660" yMax="696">
      <component glyphName="divide" x="0" y="50" flags="0x4"/>
    </TTGlyph>
    <TTGlyph name="dollar" xMin="88" yMin="-100" xMax="686" yMax="900">
      <contour>
        <pt x="220" y="108" on="0"/>
        <pt x="344" y="96" on="1"/>
        <pt x="344" y="345" on="1"/>
        <pt x="324" y="347" on="1"/>
        <pt x="208" y="361" on="0"/>
        <pt x="98" y="471" on="0"/>
        <pt x="98" y="574" on="1"/>
        <pt x="98" y="673" on="0"/>
        <pt x="232" y="803" on="0"/>
        <pt x="344" y="814" on="1"/>
        <pt x="344" y="900" on="1"/>
        <pt x="424" y="900" on="1"/>
        <pt x="424" y="815" on="1"/>
        <pt x="540" y="806" on="0"/>
        <pt x="675" y="683" on="0"/>
        <pt x="686" y="576" on="1"/>
        <pt x="571" y="576" on="1"/>
        <pt x="554" y="691" on="0"/>
        <pt x="424" y="704" on="1"/>
        <pt x="424" y="452" on="1"/>
        <pt x="436" y="451" on="1"/>
        <pt x="552" y="437" on="0"/>
        <pt x="662" y="327" on="0"/>
        <pt x="662" y="224" on="1"/>
        <pt x="662" y="126" on="0"/>
        <pt x="533" y="-3" on="0"/>
        <pt x="424" y="-14" on="1"/>
        <pt x="424" y="-100" on="1"/>
        <pt x="344" y="-100" on="1"/>
        <pt x="344" y="-15" on="1"/>
        <pt x="233" y="-7" on="0"/>
        <pt x="101" y="106" on="0"/>
        <pt x="88" y="204" on="1"/>
        <pt x="205" y="204" on="1"/>
      </contour>
      <contour>
        <pt x="212" y="524" on="0"/>
        <pt x="270" y="470" on="0"/>
        <pt x="334" y="463" on="1"/>
        <pt x="344" y="462" on="1"/>
        <pt x="344" y="703" on="1"/>
        <pt x="282" y="695" on="0"/>
        <pt x="212" y="627" on="0"/>
        <pt x="212" y="574" on="1"/>
      </contour>
      <contour>
        <pt x="483" y="106" on="0"/>
        <pt x="548" y="172" on="0"/>
        <pt x="548" y="224" on="1"/>
        <pt x="548" y="274" on="0"/>
        <pt x="490" y="328" on="0"/>
        <pt x="426" y="335" on="1"/>
        <pt x="424" y="335" on="1"/>
        <pt x="424" y="97" on="1"/>
      </contour>
    </TTGlyph>
    <TTGlyph name="dollar.bold" xMin="88" yMin="-100" xMax="686" yMax="900">
      <contour>
        <pt x="223" y="94" on="0"/>
        <pt x="382" y="94" on="1"/>
        <pt x="459" y="94" on="0"/>
        <pt x="548" y="163" on="0"/>
        <pt x="548" y="224" on="1"/>
        <pt x="548" y="274" on="0"/>
        <pt x="490" y="328" on="0"/>
        <pt x="426" y="335" on="1"/>
        <pt x="324" y="347" on="1"/>
        <pt x="208" y="361" on="0"/>
        <pt x="98" y="471" on="0"/>
        <pt x="98" y="574" on="1"/>
        <pt x="98" y="673" on="0"/>
        <pt x="232" y="803" on="0"/>
        <pt x="344" y="814" on="1"/>
        <pt x="344" y="900" on="1"/>
        <pt x="424" y="900" on="1"/>
        <pt x="424" y="815" on="1"/>
        <pt x="540" y="806" on="0"/>
        <pt x="675" y="683" on="0"/>
        <pt x="686" y="576" on="1"/>
        <pt x="571" y="576" on="1"/>
        <pt x="562" y="640" on="0"/>
        <pt x="469" y="706" on="0"/>
        <pt x="386" y="706" on="1"/>
        <pt x="305" y="706" on="0"/>
        <pt x="212" y="635" on="0"/>
        <pt x="212" y="574" on="1"/>
        <pt x="212" y="524" on="0"/>
        <pt x="270" y="470" on="0"/>
        <pt x="334" y="463" on="1"/>
        <pt x="436" y="451" on="1"/>
        <pt x="552" y="437" on="0"/>
        <pt x="662" y="327" on="0"/>
        <pt x="662" y="224" on="1"/>
        <pt x="662" y="126" on="0"/>
        <pt x="533" y="-3" on="0"/>
        <pt x="424" y="-14" on="1"/>
        <pt x="424" y="-100" on="1"/>
        <pt x="344" y="-100" on="1"/>
        <pt x="344" y="-15" on="1"/>
        <pt x="233" y="-7" on="0"/>
        <pt x="101" y="106" on="0"/>
        <pt x="88" y="204" on="1"/>
        <pt x="205" y="204" on="1"/>
      </contour>
    </TTGlyph>
    <TTGlyph name="dotlessi" xMin="155" yMin="0" xMax="665" yMax="600">
      <contour>
        <pt x="465" y="600" on="1"/>
        <pt x="465" y="104" on="1"/>
        <pt x="665" y="104" on="1"/>
        <pt x="665" y="0" on="1"/>
        <pt x="155" y="0" on="1"/>
        <pt x="155" y="104" on="1"/>
        <pt x="355" y="104" on="1"/>
        <pt x="355" y="496" on="1"/>
        <pt x="155" y="496" on="1"/>
        <pt x="155" y="600" on="1"/>
      </contour>
    </TTGlyph>
    <TTGlyph name="e" xMin="100" yMin="-16" xMax="668" yMax="616">
      <contour>
        <pt x="100" y="398" on="0"/>
        <pt x="172" y="539" on="0"/>
        <pt x="302" y="616" on="0"/>
        <pt x="388" y="616" on="1"/>
        <pt x="468" y="616" on="0"/>
        <pt x="587" y="542" on="0"/>
        <pt x="650" y="402" on="0"/>
        <pt x="650" y="307" on="1"/>
        <pt x="650" y="292" on="0"/>
        <pt x="648" y="264" on="1"/>
        <pt x="210" y="264" on="1"/>
        <pt x="219" y="178" on="0"/>
        <pt x="313" y="86" on="0"/>
        <pt x="392" y="86" on="1"/>
        <pt x="450" y="86" on="0"/>
        <pt x="535" y="137" on="0"/>
        <pt x="556" y="184" on="1"/>
        <pt x="668" y="184" on="1"/>
        <pt x="640" y="91" on="0"/>
        <pt x="493" y="-16" on="0"/>
        <pt x="392" y="-16" on="1"/>
        <pt x="302" y="-16" on="0"/>
        <pt x="170" y="61" on="0"/>
        <pt x="100" y="206" on="0"/>
        <pt x="100" y="305" on="1"/>
      </contour>
      <contour>
        <pt x="544" y="364" on="1"/>
        <pt x="533" y="437" on="0"/>
        <pt x="452" y="514" on="0"/>
        <pt x="388" y="514" on="1"/>
        <pt x="318" y="514" on="0"/>
        <pt x="227" y="435" on="0"/>
        <pt x="213" y="364" on="1"/>
      </contour>
    </TTGlyph>
    <TTGlyph name="eight" xMin="83" yMin="-16" xMax="667" yMax="816">
      <contour>
        <pt x="457" y="452" on="0"/>
        <pt x="551" y="520" on="0"/>
        <pt x="551" y="579" on="1"/>
        <pt x="551" y="638" on="0"/>
        <pt x="457" y="706" on="0"/>
        <pt x="375" y="706" on="1"/>
        <pt x="293" y="706" on="0"/>
        <pt x="199" y="638" on="0"/>
        <pt x="199" y="579" on="1"/>
        <pt x="199" y="520" on="0"/>
        <pt x="293" y="452" on="0"/>
        <pt x="375" y="452" on="1"/>
      </contour>
      <contour>
        <pt x="83" y="659" on="0"/>
        <pt x="153" y="761" on="0"/>
        <pt x="285" y="816" on="0"/>
        <pt x="375" y="816" on="1"/>
        <pt x="465" y="816" on="0"/>
        <pt x="597" y="761" on="0"/>
        <pt x="667" y="659" on="0"/>
        <pt x="667" y="590" on="1"/>
        <pt x="667" y="514" on="0"/>
        <pt x="583" y="419" on="0"/>
        <pt x="509" y="413" on="1"/>
        <pt x="509" y="383" on="1"/>
        <pt x="582" y="377" on="0"/>
        <pt x="665" y="284" on="0"/>
        <pt x="665" y="208" on="1"/>
        <pt x="665" y="104" on="0"/>
        <pt x="510" y="-16" on="0"/>
        <pt x="375" y="-16" on="1"/>
        <pt x="240" y="-16" on="0"/>
        <pt x="85" y="104" on="0"/>
        <pt x="85" y="208" on="1"/>
        <pt x="85" y="284" on="0"/>
        <pt x="168" y="377" on="0"/>
        <pt x="241" y="383" on="1"/>
        <pt x="241" y="413" on="1"/>
        <pt x="167" y="419" on="0"/>
        <pt x="83" y="514" on="0"/>
        <pt x="83" y="590" on="1"/>
      </contour>
      <contour>
        <pt x="201" y="161" on="0"/>
        <pt x="294" y="94" on="0"/>
        <pt x="375" y="94" on="1"/>
        <pt x="456" y="94" on="0"/>
        <pt x="549" y="161" on="0"/>
        <pt x="549" y="219" on="1"/>
        <pt x="549" y="277" on="0"/>
        <pt x="456" y="344" on="0"/>
        <pt x="375" y="344" on="1"/>
        <pt x="294" y="344" on="0"/>
        <pt x="201" y="277" on="0"/>
        <pt x="201" y="219" on="1"/>
      </contour>
    </TTGlyph>
    <TTGlyph name="ellipsis" xMin="50" yMin="-8" xMax="700" yMax="180">
      <contour>
        <pt x="337" y="-8" on="0"/>
        <pt x="295" y="41" on="0"/>
        <pt x="295" y="86" on="1"/>
        <pt x="295" y="131" on="0"/>
        <pt x="337" y="180" on="0"/>
        <pt x="375" y="180" on="1"/>
        <pt x="413" y="180" on="0"/>
        <pt x="455" y="131" on="0"/>
        <pt x="455" y="86" on="1"/>
        <pt x="455" y="41" on="0"/>
        <pt x="413" y="-8" on="0"/>
        <pt x="375" y="-8" on="1"/>
      </contour>
      <contour>
        <pt x="50" y="131" on="0"/>
        <pt x="92" y="180" on="0"/>
        <pt x="130" y="180" on="1"/>
        <pt x="168" y="180" on="0"/>
        <pt x="210" y="131" on="0"/>
        <pt x="210" y="86" on="1"/>
        <pt x="210" y="41" on="0"/>
        <pt x="168" y="-8" on="0"/>
        <pt x="130" y="-8" on="1"/>
        <pt x="92" y="-8" on="0"/>
        <pt x="50" y="41" on="0"/>
        <pt x="50" y="86" on="1"/>
      </contour>
      <contour>
        <pt x="540" y="131" on="0"/>
        <pt x="582" y="180" on="0"/>
        <pt x="620" y="180" on="1"/>
        <pt x="658" y="180" on="0"/>
        <pt x="700" y="131" on="0"/>
        <pt x="700" y="86" on="1"/>
        <pt x="700" y="41" on="0"/>
        <pt x="658" y="-8" on="0"/>
        <pt x="620" y="-8" on="1"/>
        <pt x="582" y="-8" on="0"/>
        <pt x="540" y="41" on="0"/>
        <pt x="540" y="86" on="1"/>
      </contour>
    </TTGlyph>
    <TTGlyph name="emdash" xMin="40" yMin="300" xMax="710" yMax="400">
      <contour>
        <pt x="710" y="400" on="1"/>
        <pt x="710" y="300" on="1"/>
        <pt x="40" y="300" on="1"/>
        <pt x="40" y="400" on="1"/>
      </contour>
    </TTGlyph>
    <TTGlyph name="emdash.case" xMin="40" yMin="350" xMax="710" yMax="450">
      <component glyphName="emdash" x="0" y="50" flags="0x4"/>
    </TTGlyph>
    <TTGlyph name="endash" xMin="70" yMin="300" xMax="680" yMax="400">
      <contour>
        <pt x="680" y="400" on="1"/>
        <pt x="680" y="300" on="1"/>
        <pt x="70" y="300" on="1"/>
        <pt x="70" y="400" on="1"/>
      </contour>
    </TTGlyph>
    <TTGlyph name="endash.case" xMin="70" yMin="350" xMax="680" yMax="450">
      <component glyphName="endash" x="0" y="50" flags="0x4"/>
    </TTGlyph>
    <TTGlyph name="equal" xMin="90" yMin="160" xMax="660" yMax="540">
      <contour>
        <pt x="90" y="540" on="1"/>
        <pt x="660" y="540" on="1"/>
        <pt x="660" y="440" on="1"/>
        <pt x="90" y="440" on="1"/>
      </contour>
      <contour>
        <pt x="90" y="260" on="1"/>
        <pt x="660" y="260" on="1"/>
        <pt x="660" y="160" on="1"/>
        <pt x="90" y="160" on="1"/>
      </contour>
    </TTGlyph>
    <TTGlyph name="equal.case" xMin="90" yMin="210" xMax="660" yMax="590">
      <component glyphName="equal" x="0" y="50" flags="0x4"/>
    </TTGlyph>
    <TTGlyph name="exclam" xMin="285" yMin="-6" xMax="465" yMax="800">
      <contour>
        <pt x="432" y="800" on="1"/>
        <pt x="432" y="230" on="1"/>
        <pt x="318" y="230" on="1"/>
        <pt x="318" y="800" on="1"/>
      </contour>
      <contour>
        <pt x="285" y="106" on="0"/>
        <pt x="332" y="145" on="0"/>
        <pt x="375" y="145" on="1"/>
        <pt x="418" y="145" on="0"/>
        <pt x="465" y="106" on="0"/>
        <pt x="465" y="69" on="1"/>
        <pt x="465" y="33" on="0"/>
        <pt x="418" y="-6" on="0"/>
        <pt x="375" y="-6" on="1"/>
        <pt x="332" y="-6" on="0"/>
        <pt x="285" y="33" on="0"/>
        <pt x="285" y="69" on="1"/>
      </contour>
    </TTGlyph>
    <TTGlyph name="f" xMin="140" yMin="0" xMax="712" yMax="864">
      <contour>
        <pt x="286" y="0" on="1"/>
        <pt x="286" y="496" on="1"/>
        <pt x="140" y="496" on="1"/>
        <pt x="140" y="600" on="1"/>
        <pt x="286" y="600" on="1"/>
        <pt x="286" y="658" on="1"/>
        <pt x="286" y="757" on="0"/>
        <pt x="396" y="864" on="0"/>
        <pt x="498" y="864" on="1"/>
        <pt x="592" y="864" on="0"/>
        <pt x="704" y="773" on="0"/>
        <pt x="712" y="690" on="1"/>
        <pt x="600" y="690" on="1"/>
        <pt x="591" y="760" on="0"/>
        <pt x="498" y="760" on="1"/>
        <pt x="448" y="760" on="0"/>
        <pt x="396" y="708" on="0"/>
        <pt x="396" y="658" on="1"/>
        <pt x="396" y="600" on="1"/>
        <pt x="650" y="600" on="1"/>
        <pt x="650" y="496" on="1"/>
        <pt x="396" y="496" on="1"/>
        <pt x="396" y="0" on="1"/>
      </contour>
    </TTGlyph>
    <TTGlyph name="five" xMin="98" yMin="-16" xMax="670" yMax="800">
      <contour>
        <pt x="654" y="800" on="1"/>
        <pt x="654" y="690" on="1"/>
        <pt x="246" y="690" on="1"/>
        <pt x="246" y="456" on="1"/>
        <pt x="276" y="456" on="1"/>
        <pt x="285" y="493" on="0"/>
        <pt x="365" y="536" on="0"/>
        <pt x="427" y="536" on="1"/>
        <pt x="540" y="536" on="0"/>
        <pt x="670" y="391" on="0"/>
        <pt x="670" y="264" on="1"/>
        <pt x="670" y="134" on="0"/>
        <pt x="519" y="-16" on="0"/>
        <pt x="388" y="-16" on="1"/>
        <pt x="268" y="-16" on="0"/>
        <pt x="112" y="121" on="0"/>
        <pt x="98" y="240" on="1"/>
        <pt x="222" y="240" on="1"/>
        <pt x="232" y="172" on="0"/>
        <pt x="321" y="94" on="0"/>
        <pt x="388" y="94" on="1"/>
        <pt x="465" y="94" on="0"/>
        <pt x="554" y="185" on="0"/>
        <pt x="554" y="264" on="1"/>
        <pt x="554" y="341" on="0"/>
        <pt x="466" y="430" on="0"/>
        <pt x="389" y="430" on="1"/>
        <pt x="336" y="430" on="0"/>
        <pt x="254" y="385" on="0"/>
        <pt x="236" y="346" on="1"/>
        <pt x="132" y="346" on="1"/>
        <pt x="132" y="800" on="1"/>
      </contour>
    </TTGlyph>
    <TTGlyph name="four" xMin="74" yMin="0" xMax="684" yMax="800">
      <contour>
        <pt x="558" y="340" on="1"/>
        <pt x="684" y="340" on="1"/>
        <pt x="684" y="230" on="1"/>
        <pt x="558" y="230" on="1"/>
        <pt x="558" y="0" on="1"/>
        <pt x="444" y="0" on="1"/>
        <pt x="444" y="230" on="1"/>
        <pt x="74" y="230" on="1"/>
        <pt x="74" y="400" on="1"/>
        <pt x="342" y="800" on="1"/>
        <pt x="558" y="800" on="1"/>
      </contour>
      <contour>
        <pt x="444" y="340" on="1"/>
        <pt x="444" y="758" on="1"/>
        <pt x="161" y="340" on="1"/>
      </contour>
    </TTGlyph>
    <TTGlyph name="g" xMin="84" yMin="-216" xMax="626" yMax="616">
      <contour>
        <pt x="626" y="-50" on="0"/>
        <pt x="559" y="-157" on="0"/>
        <pt x="436" y="-216" on="0"/>
        <pt x="355" y="-216" on="1"/>
        <pt x="281" y="-216" on="0"/>
        <pt x="162" y="-167" on="0"/>
        <pt x="90" y="-78" on="0"/>
        <pt x="84" y="-20" on="1"/>
        <pt x="202" y="-20" on="1"/>
        <pt x="210" y="-63" on="0"/>
        <pt x="291" y="-112" on="0"/>
        <pt x="355" y="-112" on="1"/>
        <pt x="430" y="-112" on="0"/>
        <pt x="516" y="-41" on="0"/>
        <pt x="516" y="20" on="1"/>
        <pt x="516" y="131" on="1"/>
        <pt x="486" y="131" on="1"/>
        <pt x="474" y="85" on="0"/>
        <pt x="393" y="32" on="0"/>
        <pt x="335" y="32" on="1"/>
        <pt x="260" y="32" on="0"/>
        <pt x="146" y="105" on="0"/>
        <pt x="84" y="237" on="0"/>
        <pt x="84" y="324" on="1"/>
        <pt x="84" y="411" on="0"/>
        <pt x="146" y="543" on="0"/>
        <pt x="260" y="616" on="0"/>
        <pt x="335" y="616" on="1"/>
        <pt x="393" y="616" on="0"/>
        <pt x="474" y="563" on="0"/>
        <pt x="486" y="517" on="1"/>
        <pt x="516" y="517" on="1"/>
        <pt x="516" y="600" on="1"/>
        <pt x="626" y="600" on="1"/>
        <pt x="626" y="20" on="1"/>
      </contour>
      <contour>
        <pt x="196" y="235" on="0"/>
        <pt x="284" y="134" on="0"/>
        <pt x="360" y="134" on="1"/>
        <pt x="436" y="134" on="0"/>
        <pt x="524" y="235" on="0"/>
        <pt x="524" y="324" on="1"/>
        <pt x="524" y="413" on="0"/>
        <pt x="436" y="514" on="0"/>
        <pt x="360" y="514" on="1"/>
        <pt x="284" y="514" on="0"/>
        <pt x="196" y="413" on="0"/>
        <pt x="196" y="324" on="1"/>
      </contour>
    </TTGlyph>
    <TTGlyph name="grave" xMin="213" yMin="572" xMax="537" yMax="848">
      <contour>
        <pt x="357" y="848" on="1"/>
        <pt x="537" y="572" on="1"/>
        <pt x="433" y="572" on="1"/>
        <pt x="213" y="848" on="1"/>
      </contour>
    </TTGlyph>
    <TTGlyph name="greater" xMin="120" yMin="29" xMax="630" yMax="671">
      <contour>
        <pt x="120" y="29" on="1"/>
        <pt x="120" y="142" on="1"/>
        <pt x="570" y="345" on="1"/>
        <pt x="570" y="355" on="1"/>
        <pt x="120" y="558" on="1"/>
        <pt x="120" y="671" on="1"/>
        <pt x="630" y="435" on="1"/>
        <pt x="630" y="265" on="1"/>
      </contour>
    </TTGlyph>
    <TTGlyph name="greater.case" xMin="120" yMin="79" xMax="630" yMax="721">
      <component glyphName="greater" x="0" y="50" flags="0x4"/>
    </TTGlyph>
    <TTGlyph name="guillemotleft" xMin="106" yMin="40" xMax="616" yMax="660">
      <contour>
        <pt x="106" y="269" on="1"/>
        <pt x="106" y="429" on="1"/>
        <pt x="386" y="660" on="1"/>
        <pt x="386" y="523" on="1"/>
        <pt x="169" y="350" on="1"/>
        <pt x="386" y="180" on="1"/>
        <pt x="386" y="40" on="1"/>
      </contour>
      <contour>
        <pt x="376" y="427" on="1"/>
        <pt x="616" y="598" on="1"/>
        <pt x="616" y="472" on="1"/>
        <pt x="437" y="350" on="1"/>
        <pt x="616" y="231" on="1"/>
        <pt x="616" y="102" on="1"/>
        <pt x="376" y="271" on="1"/>
      </contour>
    </TTGlyph>
    <TTGlyph name="guillemotright" xMin="134" yMin="40" xMax="644" yMax="660">
      <contour>
        <pt x="364" y="180" on="1"/>
        <pt x="581" y="350" on="1"/>
        <pt x="364" y="523" on="1"/>
        <pt x="364" y="660" on="1"/>
        <pt x="644" y="429" on="1"/>
        <pt x="644" y="269" on="1"/>
        <pt x="364" y="40" on="1"/>
      </contour>
      <contour>
        <pt x="134" y="231" on="1"/>
        <pt x="313" y="350" on="1"/>
        <pt x="134" y="472" on="1"/>
        <pt x="134" y="598" on="1"/>
        <pt x="374" y="427" on="1"/>
        <pt x="374" y="271" on="1"/>
        <pt x="134" y="102" on="1"/>
      </contour>
    </TTGlyph>
    <TTGlyph name="h" xMin="120" yMin="0" xMax="642" yMax="848">
      <contour>
        <pt x="230" y="848" on="1"/>
        <pt x="230" y="510" on="1"/>
        <pt x="260" y="510" on="1"/>
        <pt x="274" y="561" on="0"/>
        <pt x="358" y="616" on="0"/>
        <pt x="421" y="616" on="1"/>
        <pt x="487" y="616" on="0"/>
        <pt x="587" y="556" on="0"/>
        <pt x="642" y="447" on="0"/>
        <pt x="642" y="376" on="1"/>
        <pt x="642" y="0" on="1"/>
        <pt x="532" y="0" on="1"/>
        <pt x="532" y="346" on="1"/>
        <pt x="532" y="426" on="0"/>
        <pt x="454" y="512" on="0"/>
        <pt x="381" y="512" on="1"/>
        <pt x="308" y="512" on="0"/>
        <pt x="230" y="426" on="0"/>
        <pt x="230" y="346" on="1"/>
        <pt x="230" y="0" on="1"/>
        <pt x="120" y="0" on="1"/>
        <pt x="120" y="848" on="1"/>
      </contour>
    </TTGlyph>
    <TTGlyph name="hyphen" xMin="90" yMin="300" xMax="660" yMax="400">
      <component glyphName="minus" x="0" y="0" flags="0x0"/>
    </TTGlyph>
    <TTGlyph name="hyphen.case" xMin="90" yMin="350" xMax="660" yMax="450">
      <component glyphName="minus.case" x="0" y="0" flags="0x0"/>
    </TTGlyph>
    <TTGlyph name="i" xMin="155" yMin="0" xMax="665" yMax="848">
      <component glyphName="dotlessi" x="0" y="0" flags="0x0"/>
      <component glyphName="uni0307" x="326" y="0" flags="0x0"/>
    </TTGlyph>
    <TTGlyph name="j" xMin="109" yMin="-216" xMax="564" yMax="848">
      <component glyphName="uni0237" x="0" y="0" flags="0x0"/>
      <component glyphName="uni0307" x="396" y="0" flags="0x0"/>
    </TTGlyph>
    <TTGlyph name="k" xMin="162" yMin="0" xMax="702" yMax="848">
      <contour>
        <pt x="272" y="848" on="1"/>
        <pt x="272" y="326" on="1"/>
        <pt x="561" y="600" on="1"/>
        <pt x="702" y="600" on="1"/>
        <pt x="379" y="297" on="1"/>
        <pt x="692" y="0" on="1"/>
        <pt x="542" y="0" on="1"/>
        <pt x="272" y="258" on="1"/>
        <pt x="272" y="0" on="1"/>
        <pt x="162" y="0" on="1"/>
        <pt x="162" y="848" on="1"/>
      </contour>
    </TTGlyph>
    <TTGlyph name="l" xMin="140" yMin="0" xMax="650" yMax="848">
      <contour>
        <pt x="450" y="848" on="1"/>
        <pt x="450" y="104" on="1"/>
        <pt x="650" y="104" on="1"/>
        <pt x="650" y="0" on="1"/>
        <pt x="140" y="0" on="1"/>
        <pt x="140" y="104" on="1"/>
        <pt x="340" y="104" on="1"/>
        <pt x="340" y="744" on="1"/>
        <pt x="140" y="744" on="1"/>
        <pt x="140" y="848" on="1"/>
      </contour>
    </TTGlyph>
    <TTGlyph name="less" xMin="120" yMin="29" xMax="630" yMax="671">
      <contour>
        <pt x="630" y="671" on="1"/>
        <pt x="630" y="558" on="1"/>
        <pt x="180" y="355" on="1"/>
        <pt x="180" y="345" on="1"/>
        <pt x="630" y="142" on="1"/>
        <pt x="630" y="29" on="1"/>
        <pt x="120" y="265" on="1"/>
        <pt x="120" y="435" on="1"/>
      </contour>
    </TTGlyph>
    <TTGlyph name="less.case" xMin="120" yMin="79" xMax="630" yMax="721">
      <contour>
        <pt x="630" y="721" on="1"/>
        <pt x="630" y="608" on="1"/>
        <pt x="180" y="405" on="1"/>
        <pt x="180" y="395" on="1"/>
        <pt x="630" y="192" on="1"/>
        <pt x="630" y="79" on="1"/>
        <pt x="120" y="315" on="1"/>
        <pt x="120" y="485" on="1"/>
      </contour>
    </TTGlyph>
    <TTGlyph name="m" xMin="80" yMin="0" xMax="674" yMax="616">
      <contour>
        <pt x="190" y="600" on="1"/>
        <pt x="190" y="540" on="1"/>
        <pt x="224" y="540" on="1"/>
        <pt x="232" y="577" on="0"/>
        <pt x="281" y="616" on="0"/>
        <pt x="318" y="616" on="1"/>
        <pt x="353" y="616" on="0"/>
        <pt x="404" y="577" on="0"/>
        <pt x="418" y="540" on="1"/>
        <pt x="449" y="540" on="1"/>
        <pt x="459" y="577" on="0"/>
        <pt x="513" y="616" on="0"/>
        <pt x="556" y="616" on="1"/>
        <pt x="613" y="616" on="0"/>
        <pt x="674" y="528" on="0"/>
        <pt x="674" y="446" on="1"/>
        <pt x="674" y="0" on="1"/>
        <pt x="564" y="0" on="1"/>
        <pt x="564" y="416" on="1"/>
        <pt x="564" y="463" on="0"/>
        <pt x="532" y="508" on="0"/>
        <pt x="498" y="508" on="1"/>
        <pt x="464" y="508" on="0"/>
        <pt x="432" y="463" on="0"/>
        <pt x="432" y="416" on="1"/>
        <pt x="432" y="0" on="1"/>
        <pt x="322" y="0" on="1"/>
        <pt x="322" y="416" on="1"/>
        <pt x="322" y="463" on="0"/>
        <pt x="290" y="508" on="0"/>
        <pt x="256" y="508" on="1"/>
        <pt x="222" y="508" on="0"/>
        <pt x="190" y="463" on="0"/>
        <pt x="190" y="416" on="1"/>
        <pt x="190" y="0" on="1"/>
        <pt x="80" y="0" on="1"/>
        <pt x="80" y="600" on="1"/>
      </contour>
    </TTGlyph>
    <TTGlyph name="minus" xMin="90" yMin="300" xMax="660" yMax="400">
      <contour>
        <pt x="90" y="400" on="1"/>
        <pt x="660" y="400" on="1"/>
        <pt x="660" y="300" on="1"/>
        <pt x="90" y="300" on="1"/>
      </contour>
    </TTGlyph>
    <TTGlyph name="minus.case" xMin="90" yMin="350" xMax="660" yMax="450">
      <component glyphName="minus" x="0" y="50" flags="0x4"/>
    </TTGlyph>
    <TTGlyph name="multiply" xMin="120" yMin="95" xMax="630" yMax="605">
      <contour>
        <pt x="375" y="284" on="1"/>
        <pt x="186" y="95" on="1"/>
        <pt x="120" y="161" on="1"/>
        <pt x="309" y="350" on="1"/>
        <pt x="120" y="539" on="1"/>
        <pt x="186" y="605" on="1"/>
        <pt x="375" y="416" on="1"/>
        <pt x="564" y="605" on="1"/>
        <pt x="630" y="539" on="1"/>
        <pt x="441" y="350" on="1"/>
        <pt x="630" y="161" on="1"/>
        <pt x="564" y="95" on="1"/>
      </contour>
    </TTGlyph>
    <TTGlyph name="multiply.case" xMin="120" yMin="145" xMax="630" yMax="655">
      <component glyphName="multiply" x="0" y="50" flags="0x4"/>
    </TTGlyph>
    <TTGlyph name="n" xMin="120" yMin="0" xMax="642" yMax="616">
      <contour>
        <pt x="230" y="600" on="1"/>
        <pt x="230" y="510" on="1"/>
        <pt x="260" y="510" on="1"/>
        <pt x="274" y="561" on="0"/>
        <pt x="358" y="616" on="0"/>
        <pt x="421" y="616" on="1"/>
        <pt x="487" y="616" on="0"/>
        <pt x="587" y="556" on="0"/>
        <pt x="642" y="447" on="0"/>
        <pt x="642" y="376" on="1"/>
        <pt x="642" y="0" on="1"/>
        <pt x="532" y="0" on="1"/>
        <pt x="532" y="346" on="1"/>
        <pt x="532" y="426" on="0"/>
        <pt x="454" y="512" on="0"/>
        <pt x="381" y="512" on="1"/>
        <pt x="308" y="512" on="0"/>
        <pt x="230" y="426" on="0"/>
        <pt x="230" y="346" on="1"/>
        <pt x="230" y="0" on="1"/>
        <pt x="120" y="0" on="1"/>
        <pt x="120" y="600" on="1"/>
      </contour>
    </TTGlyph>
    <TTGlyph name="nine" xMin="80" yMin="0" xMax="670" yMax="816">
      <contour>
        <pt x="463" y="816" on="0"/>
        <pt x="596" y="748" on="0"/>
        <pt x="670" y="625" on="0"/>
        <pt x="670" y="544" on="1"/>
        <pt x="670" y="473" on="0"/>
        <pt x="622" y="345" on="0"/>
        <pt x="569" y="274" on="1"/>
        <pt x="365" y="0" on="1"/>
        <pt x="224" y="0" on="1"/>
        <pt x="462" y="314" on="1"/>
        <pt x="439" y="332" on="1"/>
        <pt x="423" y="314" on="0"/>
        <pt x="357" y="292" on="0"/>
        <pt x="319" y="292" on="1"/>
        <pt x="250" y="292" on="0"/>
        <pt x="141" y="357" on="0"/>
        <pt x="80" y="472" on="0"/>
        <pt x="80" y="544" on="1"/>
        <pt x="80" y="625" on="0"/>
        <pt x="154" y="748" on="0"/>
        <pt x="287" y="816" on="0"/>
        <pt x="375" y="816" on="1"/>
      </contour>
      <contour>
        <pt x="196" y="471" on="0"/>
        <pt x="295" y="382" on="0"/>
        <pt x="375" y="382" on="1"/>
        <pt x="455" y="382" on="0"/>
        <pt x="554" y="471" on="0"/>
        <pt x="554" y="544" on="1"/>
        <pt x="554" y="617" on="0"/>
        <pt x="455" y="706" on="0"/>
        <pt x="375" y="706" on="1"/>
        <pt x="295" y="706" on="0"/>
        <pt x="196" y="617" on="0"/>
        <pt x="196" y="544" on="1"/>
      </contour>
    </TTGlyph>
    <TTGlyph name="notequal" xMin="90" yMin="10" xMax="660" yMax="690">
      <contour>
        <pt x="90" y="540" on="1"/>
        <pt x="413" y="540" on="1"/>
        <pt x="483" y="690" on="1"/>
        <pt x="585" y="690" on="1"/>
        <pt x="515" y="540" on="1"/>
        <pt x="660" y="540" on="1"/>
        <pt x="660" y="440" on="1"/>
        <pt x="468" y="440" on="1"/>
        <pt x="384" y="260" on="1"/>
        <pt x="660" y="260" on="1"/>
        <pt x="660" y="160" on="1"/>
        <pt x="337" y="160" on="1"/>
        <pt x="267" y="10" on="1"/>
        <pt x="165" y="10" on="1"/>
        <pt x="235" y="160" on="1"/>
        <pt x="90" y="160" on="1"/>
        <pt x="90" y="260" on="1"/>
        <pt x="282" y="260" on="1"/>
        <pt x="366" y="440" on="1"/>
        <pt x="90" y="440" on="1"/>
      </contour>
    </TTGlyph>
    <TTGlyph name="notequal.case" xMin="90" yMin="60" xMax="660" yMax="740">
      <component glyphName="notequal" x="0" y="50" flags="0x4"/>
    </TTGlyph>
    <TTGlyph name="numbersign" xMin="48" yMin="0" xMax="702" yMax="800">
      <contour>
        <pt x="349" y="600" on="1"/>
        <pt x="480" y="600" on="1"/>
        <pt x="519" y="800" on="1"/>
        <pt x="609" y="800" on="1"/>
        <pt x="570" y="600" on="1"/>
        <pt x="702" y="600" on="1"/>
        <pt x="702" y="504" on="1"/>
        <pt x="551" y="504" on="1"/>
        <pt x="510" y="296" on="1"/>
        <pt x="648" y="296" on="1"/>
        <pt x="648" y="200" on="1"/>
        <pt x="491" y="200" on="1"/>
        <pt x="452" y="0" on="1"/>
        <pt x="362" y="0" on="1"/>
        <pt x="401" y="200" on="1"/>
        <pt x="270" y="200" on="1"/>
        <pt x="231" y="0" on="1"/>
        <pt x="141" y="0" on="1"/>
        <pt x="180" y="200" on="1"/>
        <pt x="48" y="200" on="1"/>
        <pt x="48" y="296" on="1"/>
        <pt x="199" y="296" on="1"/>
        <pt x="240" y="504" on="1"/>
        <pt x="102" y="504" on="1"/>
        <pt x="102" y="600" on="1"/>
        <pt x="259" y="600" on="1"/>
        <pt x="298" y="800" on="1"/>
        <pt x="388" y="800" on="1"/>
      </contour>
      <contour>
        <pt x="420" y="296" on="1"/>
        <pt x="461" y="504" on="1"/>
        <pt x="330" y="504" on="1"/>
        <pt x="289" y="296" on="1"/>
      </contour>
    </TTGlyph>
    <TTGlyph name="o" xMin="80" yMin="-16" xMax="670" yMax="616">
      <contour>
        <pt x="287" y="-16" on="0"/>
        <pt x="154" y="63" on="0"/>
        <pt x="80" y="207" on="0"/>
        <pt x="80" y="301" on="1"/>
        <pt x="80" y="395" on="0"/>
        <pt x="154" y="537" on="0"/>
        <pt x="287" y="616" on="0"/>
        <pt x="375" y="616" on="1"/>
        <pt x="463" y="616" on="0"/>
        <pt x="596" y="537" on="0"/>
        <pt x="670" y="395" on="0"/>
        <pt x="670" y="301" on="1"/>
        <pt x="670" y="207" on="0"/>
        <pt x="596" y="63" on="0"/>
        <pt x="463" y="-16" on="0"/>
        <pt x="375" y="-16" on="1"/>
      </contour>
      <contour>
        <pt x="190" y="202" on="0"/>
        <pt x="289" y="88" on="0"/>
        <pt x="375" y="88" on="1"/>
        <pt x="461" y="88" on="0"/>
        <pt x="560" y="202" on="0"/>
        <pt x="560" y="301" on="1"/>
        <pt x="560" y="399" on="0"/>
        <pt x="461" y="512" on="0"/>
        <pt x="375" y="512" on="1"/>
        <pt x="289" y="512" on="0"/>
        <pt x="190" y="399" on="0"/>
        <pt x="190" y="301" on="1"/>
      </contour>
    </TTGlyph>
    <TTGlyph name="one" xMin="110" yMin="0" xMax="700" yMax="800">
      <contour>
        <pt x="474" y="104" on="1"/>
        <pt x="700" y="104" on="1"/>
        <pt x="700" y="0" on="1"/>
        <pt x="110" y="0" on="1"/>
        <pt x="110" y="104" on="1"/>
        <pt x="360" y="104" on="1"/>
        <pt x="360" y="712" on="1"/>
        <pt x="110" y="545" on="1"/>
        <pt x="110" y="680" on="1"/>
        <pt x="302" y="800" on="1"/>
        <pt x="474" y="800" on="1"/>
      </contour>
    </TTGlyph>
    <TTGlyph name="p" xMin="110" yMin="-200" xMax="686" yMax="616">
      <contour>
        <pt x="502" y="616" on="0"/>
        <pt x="621" y="537" on="0"/>
        <pt x="686" y="394" on="0"/>
        <pt x="686" y="300" on="1"/>
        <pt x="686" y="206" on="0"/>
        <pt x="621" y="63" on="0"/>
        <pt x="502" y="-16" on="0"/>
        <pt x="424" y="-16" on="1"/>
        <pt x="353" y="-16" on="0"/>
        <pt x="263" y="41" on="0"/>
        <pt x="250" y="93" on="1"/>
        <pt x="220" y="93" on="1"/>
        <pt x="220" y="-200" on="1"/>
        <pt x="110" y="-200" on="1"/>
        <pt x="110" y="600" on="1"/>
        <pt x="220" y="600" on="1"/>
        <pt x="220" y="507" on="1"/>
        <pt x="250" y="507" on="1"/>
        <pt x="263" y="559" on="0"/>
        <pt x="353" y="616" on="0"/>
        <pt x="424" y="616" on="1"/>
      </contour>
      <contour>
        <pt x="214" y="200" on="0"/>
        <pt x="310" y="86" on="0"/>
        <pt x="394" y="86" on="1"/>
        <pt x="478" y="86" on="0"/>
        <pt x="574" y="200" on="0"/>
        <pt x="574" y="300" on="1"/>
        <pt x="574" y="400" on="0"/>
        <pt x="478" y="514" on="0"/>
        <pt x="394" y="514" on="1"/>
        <pt x="310" y="514" on="0"/>
        <pt x="214" y="400" on="0"/>
        <pt x="214" y="300" on="1"/>
      </contour>
    </TTGlyph>
    <TTGlyph name="parenleft" xMin="262" yMin="-160" xMax="592" yMax="920">
      <contour>
        <pt x="486" y="765" on="0"/>
        <pt x="372" y="537" on="0"/>
        <pt x="372" y="380" on="1"/>
        <pt x="372" y="223" on="0"/>
        <pt x="486" y="-5" on="0"/>
        <pt x="592" y="-60" on="1"/>
        <pt x="592" y="-160" on="1"/>
        <pt x="490" y="-118" on="0"/>
        <pt x="342" y="41" on="0"/>
        <pt x="262" y="256" on="0"/>
        <pt x="262" y="380" on="1"/>
        <pt x="262" y="504" on="0"/>
        <pt x="342" y="719" on="0"/>
        <pt x="490" y="878" on="0"/>
        <pt x="592" y="920" on="1"/>
        <pt x="592" y="820" on="1"/>
      </contour>
    </TTGlyph>
    <TTGlyph name="parenright" xMin="158" yMin="-160" xMax="488" yMax="920">
      <contour>
        <pt x="260" y="878" on="0"/>
        <pt x="408" y="719" on="0"/>
        <pt x="488" y="504" on="0"/>
        <pt x="488" y="380" on="1"/>
        <pt x="488" y="256" on="0"/>
        <pt x="408" y="41" on="0"/>
        <pt x="260" y="-118" on="0"/>
        <pt x="158" y="-160" on="1"/>
        <pt x="158" y="-60" on="1"/>
        <pt x="264" y="-5" on="0"/>
        <pt x="378" y="223" on="0"/>
        <pt x="378" y="380" on="1"/>
        <pt x="378" y="537" on="0"/>
        <pt x="264" y="765" on="0"/>
        <pt x="158" y="820" on="1"/>
        <pt x="158" y="920" on="1"/>
      </contour>
    </TTGlyph>
    <TTGlyph name="percent" xMin="50" yMin="-16" xMax="700" yMax="816">
      <contour>
        <pt x="50" y="227" on="1"/>
        <pt x="700" y="670" on="1"/>
        <pt x="700" y="573" on="1"/>
        <pt x="50" y="130" on="1"/>
      </contour>
      <contour>
        <pt x="60" y="721" on="0"/>
        <pt x="144" y="816" on="0"/>
        <pt x="221" y="816" on="1"/>
        <pt x="298" y="816" on="0"/>
        <pt x="382" y="721" on="0"/>
        <pt x="382" y="633" on="1"/>
        <pt x="382" y="545" on="0"/>
        <pt x="298" y="450" on="0"/>
        <pt x="221" y="450" on="1"/>
        <pt x="144" y="450" on="0"/>
        <pt x="60" y="545" on="0"/>
        <pt x="60" y="633" on="1"/>
      </contour>
      <contour>
        <pt x="158" y="591" on="0"/>
        <pt x="191" y="546" on="0"/>
        <pt x="221" y="546" on="1"/>
        <pt x="251" y="546" on="0"/>
        <pt x="284" y="591" on="0"/>
        <pt x="284" y="633" on="1"/>
        <pt x="284" y="675" on="0"/>
        <pt x="251" y="720" on="0"/>
        <pt x="221" y="720" on="1"/>
        <pt x="191" y="720" on="0"/>
        <pt x="158" y="675" on="0"/>
        <pt x="158" y="633" on="1"/>
      </contour>
      <contour>
        <pt x="368" y="255" on="0"/>
        <pt x="452" y="350" on="0"/>
        <pt x="529" y="350" on="1"/>
        <pt x="606" y="350" on="0"/>
        <pt x="690" y="255" on="0"/>
        <pt x="690" y="167" on="1"/>
        <pt x="690" y="79" on="0"/>
        <pt x="606" y="-16" on="0"/>
        <pt x="529" y="-16" on="1"/>
        <pt x="452" y="-16" on="0"/>
        <pt x="368" y="79" on="0"/>
        <pt x="368" y="167" on="1"/>
      </contour>
      <contour>
        <pt x="466" y="125" on="0"/>
        <pt x="499" y="80" on="0"/>
        <pt x="529" y="80" on="1"/>
        <pt x="559" y="80" on="0"/>
        <pt x="592" y="125" on="0"/>
        <pt x="592" y="167" on="1"/>
        <pt x="592" y="209" on="0"/>
        <pt x="559" y="254" on="0"/>
        <pt x="529" y="254" on="1"/>
        <pt x="499" y="254" on="0"/>
        <pt x="466" y="209" on="0"/>
        <pt x="466" y="167" on="1"/>
      </contour>
    </TTGlyph>
    <TTGlyph name="percent.cv01" xMin="60" yMin="-16" xMax="690" yMax="816">
      <contour>
        <pt x="449" y="-16" on="0"/>
        <pt x="368" y="89" on="0"/>
        <pt x="368" y="192" on="1"/>
        <pt x="368" y="295" on="0"/>
        <pt x="449" y="400" on="0"/>
        <pt x="529" y="400" on="1"/>
        <pt x="609" y="400" on="0"/>
        <pt x="690" y="295" on="0"/>
        <pt x="690" y="192" on="1"/>
        <pt x="690" y="89" on="0"/>
        <pt x="609" y="-16" on="0"/>
        <pt x="529" y="-16" on="1"/>
      </contour>
      <contour>
        <pt x="60" y="711" on="0"/>
        <pt x="141" y="816" on="0"/>
        <pt x="221" y="816" on="1"/>
        <pt x="301" y="816" on="0"/>
        <pt x="382" y="711" on="0"/>
        <pt x="382" y="608" on="1"/>
        <pt x="382" y="505" on="0"/>
        <pt x="301" y="400" on="0"/>
        <pt x="221" y="400" on="1"/>
        <pt x="141" y="400" on="0"/>
        <pt x="60" y="505" on="0"/>
        <pt x="60" y="608" on="1"/>
      </contour>
      <contour>
        <pt x="249" y="340" on="1"/>
        <pt x="336" y="340" on="1"/>
        <pt x="183" y="0" on="1"/>
        <pt x="90" y="0" on="1"/>
      </contour>
      <contour>
        <pt x="158" y="496" on="0"/>
        <pt x="221" y="496" on="1"/>
        <pt x="284" y="496" on="0"/>
        <pt x="284" y="608" on="1"/>
        <pt x="284" y="720" on="0"/>
        <pt x="221" y="720" on="1"/>
        <pt x="158" y="720" on="0"/>
        <pt x="158" y="608" on="1"/>
      </contour>
      <contour>
        <pt x="567" y="800" on="1"/>
        <pt x="660" y="800" on="1"/>
        <pt x="501" y="460" on="1"/>
        <pt x="414" y="460" on="1"/>
      </contour>
      <contour>
        <pt x="466" y="80" on="0"/>
        <pt x="529" y="80" on="1"/>
        <pt x="592" y="80" on="0"/>
        <pt x="592" y="192" on="1"/>
        <pt x="592" y="304" on="0"/>
        <pt x="529" y="304" on="1"/>
        <pt x="466" y="304" on="0"/>
        <pt x="466" y="192" on="1"/>
      </contour>
    </TTGlyph>
    <TTGlyph name="percent.cv02" xMin="60" yMin="-20" xMax="690" yMax="820">
      <contour>
        <pt x="452" y="-16" on="0"/>
        <pt x="368" y="79" on="0"/>
        <pt x="368" y="167" on="1"/>
        <pt x="368" y="255" on="0"/>
        <pt x="452" y="350" on="0"/>
        <pt x="529" y="350" on="1"/>
        <pt x="606" y="350" on="0"/>
        <pt x="690" y="255" on="0"/>
        <pt x="690" y="167" on="1"/>
        <pt x="690" y="79" on="0"/>
        <pt x="606" y="-16" on="0"/>
        <pt x="529" y="-16" on="1"/>
      </contour>
      <contour>
        <pt x="60" y="721" on="0"/>
        <pt x="144" y="816" on="0"/>
        <pt x="221" y="816" on="1"/>
        <pt x="298" y="816" on="0"/>
        <pt x="382" y="721" on="0"/>
        <pt x="382" y="633" on="1"/>
        <pt x="382" y="545" on="0"/>
        <pt x="298" y="450" on="0"/>
        <pt x="221" y="450" on="1"/>
        <pt x="144" y="450" on="0"/>
        <pt x="60" y="545" on="0"/>
        <pt x="60" y="633" on="1"/>
      </contour>
      <contour>
        <pt x="100" y="102" on="1"/>
        <pt x="650" y="820" on="1"/>
        <pt x="650" y="698" on="1"/>
        <pt x="100" y="-20" on="1"/>
      </contour>
      <contour>
        <pt x="158" y="591" on="0"/>
        <pt x="191" y="546" on="0"/>
        <pt x="221" y="546" on="1"/>
        <pt x="251" y="546" on="0"/>
        <pt x="284" y="591" on="0"/>
        <pt x="284" y="633" on="1"/>
        <pt x="284" y="675" on="0"/>
        <pt x="251" y="720" on="0"/>
        <pt x="221" y="720" on="1"/>
        <pt x="191" y="720" on="0"/>
        <pt x="158" y="675" on="0"/>
        <pt x="158" y="633" on="1"/>
      </contour>
      <contour>
        <pt x="466" y="125" on="0"/>
        <pt x="499" y="80" on="0"/>
        <pt x="529" y="80" on="1"/>
        <pt x="559" y="80" on="0"/>
        <pt x="592" y="125" on="0"/>
        <pt x="592" y="167" on="1"/>
        <pt x="592" y="209" on="0"/>
        <pt x="559" y="254" on="0"/>
        <pt x="529" y="254" on="1"/>
        <pt x="499" y="254" on="0"/>
        <pt x="466" y="209" on="0"/>
        <pt x="466" y="167" on="1"/>
      </contour>
    </TTGlyph>
    <TTGlyph name="period" xMin="276" yMin="-8" xMax="474" yMax="180">
      <contour>
        <pt x="328" y="-8" on="0"/>
        <pt x="276" y="41" on="0"/>
        <pt x="276" y="86" on="1"/>
        <pt x="276" y="131" on="0"/>
        <pt x="328" y="180" on="0"/>
        <pt x="375" y="180" on="1"/>
        <pt x="422" y="180" on="0"/>
        <pt x="474" y="131" on="0"/>
        <pt x="474" y="86" on="1"/>
        <pt x="474" y="41" on="0"/>
        <pt x="422" y="-8" on="0"/>
        <pt x="375" y="-8" on="1"/>
      </contour>
    </TTGlyph>
    <TTGlyph name="plus" xMin="90" yMin="65" xMax="660" yMax="635">
      <contour>
        <pt x="90" y="400" on="1"/>
        <pt x="325" y="400" on="1"/>
        <pt x="325" y="635" on="1"/>
        <pt x="425" y="635" on="1"/>
        <pt x="425" y="400" on="1"/>
        <pt x="660" y="400" on="1"/>
        <pt x="660" y="300" on="1"/>
        <pt x="425" y="300" on="1"/>
        <pt x="425" y="65" on="1"/>
        <pt x="325" y="65" on="1"/>
        <pt x="325" y="300" on="1"/>
        <pt x="90" y="300" on="1"/>
      </contour>
    </TTGlyph>
    <TTGlyph name="plus.case" xMin="90" yMin="115" xMax="660" yMax="685">
      <component glyphName="plus" x="0" y="50" flags="0x4"/>
    </TTGlyph>
    <TTGlyph name="q" xMin="64" yMin="-200" xMax="640" yMax="616">
      <contour>
        <pt x="397" y="616" on="0"/>
        <pt x="487" y="559" on="0"/>
        <pt x="500" y="507" on="1"/>
        <pt x="530" y="507" on="1"/>
        <pt x="530" y="600" on="1"/>
        <pt x="640" y="600" on="1"/>
        <pt x="640" y="-200" on="1"/>
        <pt x="530" y="-200" on="1"/>
        <pt x="530" y="93" on="1"/>
        <pt x="500" y="93" on="1"/>
        <pt x="487" y="41" on="0"/>
        <pt x="397" y="-16" on="0"/>
        <pt x="326" y="-16" on="1"/>
        <pt x="248" y="-16" on="0"/>
        <pt x="129" y="63" on="0"/>
        <pt x="64" y="206" on="0"/>
        <pt x="64" y="300" on="1"/>
        <pt x="64" y="394" on="0"/>
        <pt x="129" y="537" on="0"/>
        <pt x="248" y="616" on="0"/>
        <pt x="326" y="616" on="1"/>
      </contour>
      <contour>
        <pt x="176" y="200" on="0"/>
        <pt x="272" y="86" on="0"/>
        <pt x="356" y="86" on="1"/>
        <pt x="440" y="86" on="0"/>
        <pt x="536" y="200" on="0"/>
        <pt x="536" y="300" on="1"/>
        <pt x="536" y="400" on="0"/>
        <pt x="440" y="514" on="0"/>
        <pt x="356" y="514" on="1"/>
        <pt x="272" y="514" on="0"/>
        <pt x="176" y="400" on="0"/>
        <pt x="176" y="300" on="1"/>
      </contour>
    </TTGlyph>
    <TTGlyph name="question" xMin="68" yMin="-6" xMax="656" yMax="816">
      <contour>
        <pt x="292" y="291" on="0"/>
        <pt x="331" y="375" on="0"/>
        <pt x="388" y="425" on="0"/>
        <pt x="434" y="455" on="1"/>
        <pt x="470" y="478" on="0"/>
        <pt x="512" y="513" on="0"/>
        <pt x="540" y="562" on="0"/>
        <pt x="540" y="596" on="1"/>
        <pt x="540" y="647" on="0"/>
        <pt x="452" y="706" on="0"/>
        <pt x="375" y="706" on="1"/>
        <pt x="295" y="706" on="0"/>
        <pt x="200" y="638" on="0"/>
        <pt x="192" y="576" on="1"/>
        <pt x="68" y="576" on="1"/>
        <pt x="83" y="691" on="0"/>
        <pt x="243" y="816" on="0"/>
        <pt x="375" y="816" on="1"/>
        <pt x="505" y="816" on="0"/>
        <pt x="656" y="698" on="0"/>
        <pt x="656" y="596" on="1"/>
        <pt x="656" y="541" on="0"/>
        <pt x="617" y="462" on="0"/>
        <pt x="562" y="412" on="0"/>
        <pt x="516" y="380" on="1"/>
        <pt x="479" y="355" on="0"/>
        <pt x="434" y="317" on="0"/>
        <pt x="406" y="265" on="0"/>
        <pt x="406" y="230" on="1"/>
        <pt x="292" y="230" on="1"/>
      </contour>
      <contour>
        <pt x="261" y="106" on="0"/>
        <pt x="308" y="145" on="0"/>
        <pt x="351" y="145" on="1"/>
        <pt x="394" y="145" on="0"/>
        <pt x="441" y="106" on="0"/>
        <pt x="441" y="69" on="1"/>
        <pt x="441" y="33" on="0"/>
        <pt x="394" y="-6" on="0"/>
        <pt x="351" y="-6" on="1"/>
        <pt x="308" y="-6" on="0"/>
        <pt x="261" y="33" on="0"/>
        <pt x="261" y="69" on="1"/>
      </contour>
    </TTGlyph>
    <TTGlyph name="quotedbl" xMin="192" yMin="458" xMax="558" yMax="848">
      <component glyphName="quotesingle" x="-121" y="0" flags="0x0"/>
      <component glyphName="quotesingle" x="121" y="0" flags="0x0"/>
    </TTGlyph>
    <TTGlyph name="quotedblbase" xMin="109" yMin="-180" xMax="612" yMax="180">
      <component glyphName="comma" x="-153" y="0" flags="0x0"/>
      <component glyphName="comma" x="128" y="0" flags="0x0"/>
    </TTGlyph>
    <TTGlyph name="quotedblleft" xMin="138" yMin="476" xMax="641" yMax="836">
      <contour>
        <pt x="575" y="664" on="0"/>
        <pt x="627" y="615" on="0"/>
        <pt x="627" y="570" on="1"/>
        <pt x="627" y="525" on="0"/>
        <pt x="575" y="476" on="0"/>
        <pt x="528" y="476" on="1"/>
        <pt x="473" y="476" on="0"/>
        <pt x="419" y="537" on="0"/>
        <pt x="419" y="600" on="1"/>
        <pt x="419" y="675" on="0"/>
        <pt x="451" y="790" on="0"/>
        <pt x="485" y="836" on="1"/>
        <pt x="641" y="836" on="1"/>
        <pt x="579" y="796" on="0"/>
        <pt x="508" y="711" on="0"/>
        <pt x="496" y="661" on="1"/>
        <pt x="511" y="664" on="0"/>
        <pt x="528" y="664" on="1"/>
      </contour>
      <contour>
        <pt x="138" y="675" on="0"/>
        <pt x="170" y="790" on="0"/>
        <pt x="204" y="836" on="1"/>
        <pt x="360" y="836" on="1"/>
        <pt x="298" y="796" on="0"/>
        <pt x="227" y="711" on="0"/>
        <pt x="215" y="661" on="1"/>
        <pt x="230" y="664" on="0"/>
        <pt x="247" y="664" on="1"/>
        <pt x="294" y="664" on="0"/>
        <pt x="346" y="615" on="0"/>
        <pt x="346" y="570" on="1"/>
        <pt x="346" y="525" on="0"/>
        <pt x="294" y="476" on="0"/>
        <pt x="247" y="476" on="1"/>
        <pt x="192" y="476" on="0"/>
        <pt x="138" y="537" on="0"/>
        <pt x="138" y="600" on="1"/>
      </contour>
    </TTGlyph>
    <TTGlyph name="quotedblright" xMin="109" yMin="542" xMax="612" yMax="902">
      <component glyphName="quotedblbase" x="0" y="722" flags="0x4"/>
    </TTGlyph>
    <TTGlyph name="quoteleft" xMin="266" yMin="476" xMax="488" yMax="836">
      <contour>
        <pt x="422" y="664" on="0"/>
        <pt x="474" y="615" on="0"/>
        <pt x="474" y="570" on="1"/>
        <pt x="474" y="525" on="0"/>
        <pt x="422" y="476" on="0"/>
        <pt x="375" y="476" on="1"/>
        <pt x="320" y="476" on="0"/>
        <pt x="266" y="537" on="0"/>
        <pt x="266" y="600" on="1"/>
        <pt x="266" y="675" on="0"/>
        <pt x="298" y="790" on="0"/>
        <pt x="332" y="836" on="1"/>
        <pt x="488" y="836" on="1"/>
        <pt x="426" y="796" on="0"/>
        <pt x="355" y="711" on="0"/>
        <pt x="343" y="661" on="1"/>
        <pt x="358" y="664" on="0"/>
        <pt x="375" y="664" on="1"/>
      </contour>
    </TTGlyph>
    <TTGlyph name="quoteright" xMin="262" yMin="542" xMax="484" yMax="902">
      <component glyphName="comma" x="0" y="722" flags="0x4"/>
    </TTGlyph>
    <TTGlyph name="quotesinglbase" xMin="262" yMin="-180" xMax="484" yMax="180">
      <component glyphName="comma" x="0" y="0" flags="0x0"/>
    </TTGlyph>
    <TTGlyph name="quotesingle" xMin="313" yMin="458" xMax="437" yMax="848">
      <contour>
        <pt x="437" y="848" on="1"/>
        <pt x="417" y="458" on="1"/>
        <pt x="333" y="458" on="1"/>
        <pt x="313" y="848" on="1"/>
      </contour>
    </TTGlyph>
    <TTGlyph name="r" xMin="100" yMin="0" xMax="680" yMax="616">
      <contour>
        <pt x="356" y="600" on="1"/>
        <pt x="356" y="530" on="1"/>
        <pt x="386" y="530" on="1"/>
        <pt x="416" y="616" on="0"/>
        <pt x="519" y="616" on="1"/>
        <pt x="594" y="616" on="0"/>
        <pt x="680" y="511" on="0"/>
        <pt x="680" y="420" on="1"/>
        <pt x="680" y="340" on="1"/>
        <pt x="564" y="340" on="1"/>
        <pt x="564" y="404" on="1"/>
        <pt x="564" y="512" on="0"/>
        <pt x="472" y="512" on="1"/>
        <pt x="356" y="512" on="0"/>
        <pt x="356" y="320" on="1"/>
        <pt x="356" y="104" on="1"/>
        <pt x="564" y="104" on="1"/>
        <pt x="564" y="0" on="1"/>
        <pt x="120" y="0" on="1"/>
        <pt x="120" y="104" on="1"/>
        <pt x="246" y="104" on="1"/>
        <pt x="246" y="496" on="1"/>
        <pt x="100" y="496" on="1"/>
        <pt x="100" y="600" on="1"/>
      </contour>
    </TTGlyph>
    <TTGlyph name="s" xMin="116" yMin="-16" xMax="654" yMax="616">
      <contour>
        <pt x="235" y="138" on="0"/>
        <pt x="317" y="88" on="0"/>
        <pt x="384" y="88" on="1"/>
        <pt x="452" y="88" on="0"/>
        <pt x="524" y="132" on="0"/>
        <pt x="524" y="172" on="1"/>
        <pt x="524" y="200" on="0"/>
        <pt x="470" y="233" on="0"/>
        <pt x="410" y="241" on="1"/>
        <pt x="324" y="253" on="1"/>
        <pt x="220" y="268" on="0"/>
        <pt x="120" y="353" on="0"/>
        <pt x="120" y="426" on="1"/>
        <pt x="120" y="516" on="0"/>
        <pt x="258" y="616" on="0"/>
        <pt x="382" y="616" on="1"/>
        <pt x="505" y="616" on="0"/>
        <pt x="648" y="504" on="0"/>
        <pt x="654" y="404" on="1"/>
        <pt x="544" y="404" on="1"/>
        <pt x="539" y="456" on="0"/>
        <pt x="454" y="512" on="0"/>
        <pt x="380" y="512" on="1"/>
        <pt x="308" y="512" on="0"/>
        <pt x="230" y="468" on="0"/>
        <pt x="230" y="428" on="1"/>
        <pt x="230" y="400" on="0"/>
        <pt x="284" y="367" on="0"/>
        <pt x="344" y="359" on="1"/>
        <pt x="430" y="347" on="1"/>
        <pt x="534" y="332" on="0"/>
        <pt x="634" y="247" on="0"/>
        <pt x="634" y="174" on="1"/>
        <pt x="634" y="84" on="0"/>
        <pt x="501" y="-16" on="0"/>
        <pt x="382" y="-16" on="1"/>
        <pt x="266" y="-16" on="0"/>
        <pt x="126" y="89" on="0"/>
        <pt x="116" y="184" on="1"/>
        <pt x="227" y="184" on="1"/>
      </contour>
    </TTGlyph>
    <TTGlyph name="section" xMin="129" yMin="-216" xMax="621" yMax="816">
      <contour>
        <pt x="489" y="649" on="0"/>
        <pt x="428" y="706" on="0"/>
        <pt x="381" y="706" on="1"/>
        <pt x="338" y="706" on="0"/>
        <pt x="285" y="661" on="0"/>
        <pt x="285" y="624" on="1"/>
        <pt x="285" y="535" on="0"/>
        <pt x="405" y="517" on="1"/>
        <pt x="506" y="501" on="0"/>
        <pt x="621" y="390" on="0"/>
        <pt x="621" y="308" on="1"/>
        <pt x="621" y="241" on="0"/>
        <pt x="542" y="149" on="0"/>
        <pt x="470" y="131" on="1"/>
        <pt x="470" y="100" on="1"/>
        <pt x="581" y="73" on="0"/>
        <pt x="581" y="-36" on="1"/>
        <pt x="581" y="-89" on="0"/>
        <pt x="528" y="-171" on="0"/>
        <pt x="432" y="-216" on="0"/>
        <pt x="369" y="-216" on="1"/>
        <pt x="272" y="-216" on="0"/>
        <pt x="150" y="-101" on="0"/>
        <pt x="139" y="0" on="1"/>
        <pt x="257" y="0" on="1"/>
        <pt x="261" y="-49" on="0"/>
        <pt x="322" y="-106" on="0"/>
        <pt x="369" y="-106" on="1"/>
        <pt x="412" y="-106" on="0"/>
        <pt x="465" y="-61" on="0"/>
        <pt x="465" y="-24" on="1"/>
        <pt x="465" y="65" on="0"/>
        <pt x="345" y="83" on="1"/>
        <pt x="244" y="99" on="0"/>
        <pt x="129" y="210" on="0"/>
        <pt x="129" y="292" on="1"/>
        <pt x="129" y="359" on="0"/>
        <pt x="208" y="451" on="0"/>
        <pt x="280" y="469" on="1"/>
        <pt x="280" y="500" on="1"/>
        <pt x="169" y="527" on="0"/>
        <pt x="169" y="636" on="1"/>
        <pt x="169" y="689" on="0"/>
        <pt x="222" y="771" on="0"/>
        <pt x="318" y="816" on="0"/>
        <pt x="381" y="816" on="1"/>
        <pt x="478" y="816" on="0"/>
        <pt x="600" y="701" on="0"/>
        <pt x="611" y="600" on="1"/>
        <pt x="493" y="600" on="1"/>
      </contour>
      <contour>
        <pt x="245" y="253" on="0"/>
        <pt x="314" y="200" on="0"/>
        <pt x="375" y="200" on="1"/>
        <pt x="436" y="200" on="0"/>
        <pt x="505" y="253" on="0"/>
        <pt x="505" y="300" on="1"/>
        <pt x="505" y="347" on="0"/>
        <pt x="436" y="400" on="0"/>
        <pt x="375" y="400" on="1"/>
        <pt x="314" y="400" on="0"/>
        <pt x="245" y="347" on="0"/>
        <pt x="245" y="300" on="1"/>
      </contour>
    </TTGlyph>
    <TTGlyph name="semicolon" xMin="262" yMin="-180" xMax="484" yMax="608">
      <component glyphName="period" x="0" y="428" flags="0x4"/>
      <component glyphName="comma" x="0" y="0" flags="0x0"/>
    </TTGlyph>
    <TTGlyph name="seven" xMin="90" yMin="0" xMax="640" yMax="800">
      <contour>
        <pt x="326" y="0" on="1"/>
        <pt x="200" y="0" on="1"/>
        <pt x="559" y="690" on="1"/>
        <pt x="90" y="690" on="1"/>
        <pt x="90" y="800" on="1"/>
        <pt x="640" y="800" on="1"/>
        <pt x="640" y="612" on="1"/>
      </contour>
    </TTGlyph>
    <TTGlyph name="six" xMin="80" yMin="-16" xMax="670" yMax="800">
      <contour>
        <pt x="287" y="-16" on="0"/>
        <pt x="154" y="52" on="0"/>
        <pt x="80" y="175" on="0"/>
        <pt x="80" y="256" on="1"/>
        <pt x="80" y="327" on="0"/>
        <pt x="128" y="455" on="0"/>
        <pt x="181" y="526" on="1"/>
        <pt x="385" y="800" on="1"/>
        <pt x="526" y="800" on="1"/>
        <pt x="288" y="486" on="1"/>
        <pt x="311" y="468" on="1"/>
        <pt x="327" y="486" on="0"/>
        <pt x="393" y="508" on="0"/>
        <pt x="431" y="508" on="1"/>
        <pt x="500" y="508" on="0"/>
        <pt x="609" y="443" on="0"/>
        <pt x="670" y="328" on="0"/>
        <pt x="670" y="256" on="1"/>
        <pt x="670" y="175" on="0"/>
        <pt x="596" y="52" on="0"/>
        <pt x="463" y="-16" on="0"/>
        <pt x="375" y="-16" on="1"/>
      </contour>
      <contour>
        <pt x="196" y="183" on="0"/>
        <pt x="295" y="94" on="0"/>
        <pt x="375" y="94" on="1"/>
        <pt x="455" y="94" on="0"/>
        <pt x="554" y="183" on="0"/>
        <pt x="554" y="256" on="1"/>
        <pt x="554" y="329" on="0"/>
        <pt x="455" y="418" on="0"/>
        <pt x="375" y="418" on="1"/>
        <pt x="295" y="418" on="0"/>
        <pt x="196" y="329" on="0"/>
        <pt x="196" y="256" on="1"/>
      </contour>
    </TTGlyph>
    <TTGlyph name="slash" xMin="130" yMin="-170" xMax="620" yMax="848">
      <contour>
        <pt x="240" y="-170" on="1"/>
        <pt x="130" y="-170" on="1"/>
        <pt x="510" y="848" on="1"/>
        <pt x="620" y="848" on="1"/>
      </contour>
    </TTGlyph>
    <TTGlyph name="sterling" xMin="100" yMin="0" xMax="670" yMax="816">
      <contour>
        <pt x="160" y="211" on="0"/>
        <pt x="218" y="271" on="0"/>
        <pt x="218" y="316" on="1"/>
        <pt x="218" y="324" on="0"/>
        <pt x="216" y="340" on="1"/>
        <pt x="100" y="340" on="1"/>
        <pt x="100" y="436" on="1"/>
        <pt x="179" y="436" on="1"/>
        <pt x="164" y="470" on="0"/>
        <pt x="148" y="535" on="0"/>
        <pt x="148" y="576" on="1"/>
        <pt x="148" y="688" on="0"/>
        <pt x="285" y="816" on="0"/>
        <pt x="404" y="816" on="1"/>
        <pt x="523" y="816" on="0"/>
        <pt x="661" y="676" on="0"/>
        <pt x="670" y="546" on="1"/>
        <pt x="554" y="546" on="1"/>
        <pt x="546" y="623" on="0"/>
        <pt x="468" y="706" on="0"/>
        <pt x="404" y="706" on="1"/>
        <pt x="339" y="706" on="0"/>
        <pt x="264" y="637" on="0"/>
        <pt x="264" y="576" on="1"/>
        <pt x="264" y="541" on="0"/>
        <pt x="283" y="478" on="0"/>
        <pt x="302" y="436" on="1"/>
        <pt x="503" y="436" on="1"/>
        <pt x="503" y="340" on="1"/>
        <pt x="332" y="340" on="1"/>
        <pt x="334" y="324" on="0"/>
        <pt x="334" y="316" on="1"/>
        <pt x="334" y="238" on="0"/>
        <pt x="240" y="137" on="0"/>
        <pt x="142" y="110" on="1"/>
        <pt x="650" y="110" on="1"/>
        <pt x="650" y="0" on="1"/>
        <pt x="100" y="0" on="1"/>
        <pt x="100" y="195" on="1"/>
      </contour>
    </TTGlyph>
    <TTGlyph name="t" xMin="84" yMin="-16" xMax="655" yMax="756">
      <contour>
        <pt x="340" y="600" on="1"/>
        <pt x="634" y="600" on="1"/>
        <pt x="634" y="496" on="1"/>
        <pt x="340" y="496" on="1"/>
        <pt x="340" y="200" on="1"/>
        <pt x="340" y="88" on="0"/>
        <pt x="440" y="88" on="1"/>
        <pt x="538" y="88" on="0"/>
        <pt x="550" y="210" on="1"/>
        <pt x="655" y="210" on="1"/>
        <pt x="646" y="101" on="0"/>
        <pt x="532" y="-16" on="0"/>
        <pt x="436" y="-16" on="1"/>
        <pt x="337" y="-16" on="0"/>
        <pt x="230" y="96" on="0"/>
        <pt x="230" y="200" on="1"/>
        <pt x="230" y="496" on="1"/>
        <pt x="84" y="496" on="1"/>
        <pt x="84" y="600" on="1"/>
        <pt x="230" y="600" on="1"/>
        <pt x="230" y="756" on="1"/>
        <pt x="340" y="756" on="1"/>
      </contour>
    </TTGlyph>
    <TTGlyph name="three" xMin="78" yMin="-16" xMax="662" yMax="816">
      <contour>
        <pt x="658" y="107" on="0"/>
        <pt x="509" y="-16" on="0"/>
        <pt x="378" y="-16" on="1"/>
        <pt x="249" y="-16" on="0"/>
        <pt x="97" y="114" on="0"/>
        <pt x="84" y="234" on="1"/>
        <pt x="204" y="234" on="1"/>
        <pt x="213" y="167" on="0"/>
        <pt x="304" y="94" on="0"/>
        <pt x="378" y="94" on="1"/>
        <pt x="454" y="94" on="0"/>
        <pt x="542" y="161" on="0"/>
        <pt x="542" y="220" on="1"/>
        <pt x="542" y="279" on="0"/>
        <pt x="463" y="347" on="0"/>
        <pt x="394" y="347" on="1"/>
        <pt x="302" y="347" on="1"/>
        <pt x="302" y="455" on="1"/>
        <pt x="394" y="455" on="1"/>
        <pt x="464" y="455" on="0"/>
        <pt x="546" y="521" on="0"/>
        <pt x="546" y="578" on="1"/>
        <pt x="546" y="637" on="0"/>
        <pt x="460" y="706" on="0"/>
        <pt x="386" y="706" on="1"/>
        <pt x="307" y="706" on="0"/>
        <pt x="210" y="628" on="0"/>
        <pt x="200" y="556" on="1"/>
        <pt x="78" y="556" on="1"/>
        <pt x="92" y="681" on="0"/>
        <pt x="252" y="816" on="0"/>
        <pt x="386" y="816" on="1"/>
        <pt x="514" y="816" on="0"/>
        <pt x="662" y="692" on="0"/>
        <pt x="662" y="584" on="1"/>
        <pt x="662" y="513" on="0"/>
        <pt x="583" y="424" on="0"/>
        <pt x="514" y="416" on="1"/>
        <pt x="514" y="386" on="1"/>
        <pt x="581" y="378" on="0"/>
        <pt x="658" y="286" on="0"/>
        <pt x="658" y="214" on="1"/>
      </contour>
    </TTGlyph>
    <TTGlyph name="two" xMin="94" yMin="0" xMax="662" yMax="816">
      <contour>
        <pt x="485" y="414" on="0"/>
        <pt x="546" y="502" on="0"/>
        <pt x="546" y="554" on="1"/>
        <pt x="546" y="625" on="0"/>
        <pt x="463" y="706" on="0"/>
        <pt x="390" y="706" on="1"/>
        <pt x="318" y="706" on="0"/>
        <pt x="228" y="628" on="0"/>
        <pt x="218" y="556" on="1"/>
        <pt x="94" y="556" on="1"/>
        <pt x="108" y="681" on="0"/>
        <pt x="262" y="816" on="0"/>
        <pt x="390" y="816" on="1"/>
        <pt x="517" y="816" on="0"/>
        <pt x="662" y="676" on="0"/>
        <pt x="662" y="554" on="1"/>
        <pt x="662" y="472" on="0"/>
        <pt x="576" y="341" on="0"/>
        <pt x="487" y="287" on="1"/>
        <pt x="193" y="110" on="1"/>
        <pt x="646" y="110" on="1"/>
        <pt x="646" y="0" on="1"/>
        <pt x="118" y="0" on="1"/>
        <pt x="118" y="186" on="1"/>
        <pt x="420" y="374" on="1"/>
      </contour>
    </TTGlyph>
    <TTGlyph name="u" xMin="108" yMin="-16" xMax="630" yMax="600">
      <contour>
        <pt x="520" y="0" on="1"/>
        <pt x="520" y="90" on="1"/>
        <pt x="490" y="90" on="1"/>
        <pt x="476" y="39" on="0"/>
        <pt x="392" y="-16" on="0"/>
        <pt x="329" y="-16" on="1"/>
        <pt x="263" y="-16" on="0"/>
        <pt x="163" y="44" on="0"/>
        <pt x="108" y="153" on="0"/>
        <pt x="108" y="224" on="1"/>
        <pt x="108" y="600" on="1"/>
        <pt x="218" y="600" on="1"/>
        <pt x="218" y="254" on="1"/>
        <pt x="218" y="174" on="0"/>
        <pt x="296" y="88" on="0"/>
        <pt x="369" y="88" on="1"/>
        <pt x="442" y="88" on="0"/>
        <pt x="520" y="174" on="0"/>
        <pt x="520" y="254" on="1"/>
        <pt x="520" y="600" on="1"/>
        <pt x="630" y="600" on="1"/>
        <pt x="630" y="0" on="1"/>
      </contour>
    </TTGlyph>
    <TTGlyph name="underscore" xMin="90" yMin="-130" xMax="660" yMax="-50">
      <contour>
        <pt x="660" y="-50" on="1"/>
        <pt x="660" y="-130" on="1"/>
        <pt x="90" y="-130" on="1"/>
        <pt x="90" y="-50" on="1"/>
      </contour>
    </TTGlyph>
    <TTGlyph name="uni0237" xMin="109" yMin="-216" xMax="535" yMax="600">
      <contour>
        <pt x="535" y="600" on="1"/>
        <pt x="535" y="-16" on="1"/>
        <pt x="535" y="-112" on="0"/>
        <pt x="425" y="-216" on="0"/>
        <pt x="323" y="-216" on="1"/>
        <pt x="227" y="-216" on="0"/>
        <pt x="116" y="-128" on="0"/>
        <pt x="109" y="-46" on="1"/>
        <pt x="217" y="-46" on="1"/>
        <pt x="226" y="-116" on="0"/>
        <pt x="323" y="-116" on="1"/>
        <pt x="373" y="-116" on="0"/>
        <pt x="425" y="-65" on="0"/>
        <pt x="425" y="-16" on="1"/>
        <pt x="425" y="496" on="1"/>
        <pt x="145" y="496" on="1"/>
        <pt x="145" y="600" on="1"/>
      </contour>
    </TTGlyph>
    <TTGlyph name="uni0306.cy" xMin="-10" yMin="880" xMax="354" yMax="1024">
      <contour>
        <pt x="96" y="956" on="0"/>
        <pt x="172" y="956" on="1"/>
        <pt x="248" y="956" on="0"/>
        <pt x="254" y="1024" on="1"/>
        <pt x="354" y="1024" on="1"/>
        <pt x="348" y="957" on="0"/>
        <pt x="251" y="880" on="0"/>
        <pt x="172" y="880" on="1"/>
        <pt x="93" y="880" on="0"/>
        <pt x="-4" y="957" on="0"/>
        <pt x="-10" y="1024" on="1"/>
        <pt x="90" y="1024" on="1"/>
      </contour>
    </TTGlyph>
    <TTGlyph name="uni0307" xMin="0" yMin="692" xMax="168" yMax="848">
      <contour>
        <pt x="46" y="692" on="0"/>
        <pt x="0" y="735" on="0"/>
        <pt x="0" y="770" on="1"/>
        <pt x="0" y="805" on="0"/>
        <pt x="46" y="848" on="0"/>
        <pt x="84" y="848" on="1"/>
        <pt x="122" y="848" on="0"/>
        <pt x="168" y="805" on="0"/>
        <pt x="168" y="770" on="1"/>
        <pt x="168" y="735" on="0"/>
        <pt x="122" y="692" on="0"/>
        <pt x="84" y="692" on="1"/>
      </contour>
    </TTGlyph>
    <TTGlyph name="uni0308" xMin="-155" yMin="872" xMax="255" yMax="1000">
      <contour>
        <pt x="-116" y="872" on="0"/>
        <pt x="-155" y="906" on="0"/>
        <pt x="-155" y="936" on="1"/>
        <pt x="-155" y="966" on="0"/>
        <pt x="-116" y="1000" on="0"/>
        <pt x="-81" y="1000" on="1"/>
        <pt x="-46" y="1000" on="0"/>
        <pt x="-7" y="966" on="0"/>
        <pt x="-7" y="936" on="1"/>
        <pt x="-7" y="906" on="0"/>
        <pt x="-46" y="872" on="0"/>
        <pt x="-81" y="872" on="1"/>
      </contour>
      <contour>
        <pt x="107" y="966" on="0"/>
        <pt x="146" y="1000" on="0"/>
        <pt x="181" y="1000" on="1"/>
        <pt x="216" y="1000" on="0"/>
        <pt x="255" y="966" on="0"/>
        <pt x="255" y="936" on="1"/>
        <pt x="255" y="906" on="0"/>
        <pt x="216" y="872" on="0"/>
        <pt x="181" y="872" on="1"/>
        <pt x="146" y="872" on="0"/>
        <pt x="107" y="906" on="0"/>
        <pt x="107" y="936" on="1"/>
      </contour>
    </TTGlyph>
    <TTGlyph name="uni043D" xMin="120" yMin="0" xMax="630" yMax="600">
      <contour>
        <pt x="230" y="600" on="1"/>
        <pt x="230" y="347" on="1"/>
        <pt x="520" y="347" on="1"/>
        <pt x="520" y="600" on="1"/>
        <pt x="630" y="600" on="1"/>
        <pt x="630" y="0" on="1"/>
        <pt x="520" y="0" on="1"/>
        <pt x="520" y="243" on="1"/>
        <pt x="230" y="243" on="1"/>
        <pt x="230" y="0" on="1"/>
        <pt x="120" y="0" on="1"/>
        <pt x="120" y="600" on="1"/>
      </contour>
    </TTGlyph>
    <TTGlyph name="uni043E" xMin="80" yMin="-16" xMax="670" yMax="616">
      <component glyphName="o" x="0" y="0" flags="0x0"/>
    </TTGlyph>
    <TTGlyph name="uni20BD" xMin="50" yMin="0" xMax="702" yMax="800">
      <contour>
        <pt x="561" y="800" on="0"/>
        <pt x="702" y="672" on="0"/>
        <pt x="702" y="560" on="1"/>
        <pt x="702" y="448" on="0"/>
        <pt x="561" y="320" on="0"/>
        <pt x="438" y="320" on="1"/>
        <pt x="274" y="320" on="1"/>
        <pt x="274" y="240" on="1"/>
        <pt x="476" y="240" on="1"/>
        <pt x="476" y="148" on="1"/>
        <pt x="274" y="148" on="1"/>
        <pt x="274" y="0" on="1"/>
        <pt x="164" y="0" on="1"/>
        <pt x="164" y="148" on="1"/>
        <pt x="50" y="148" on="1"/>
        <pt x="50" y="240" on="1"/>
        <pt x="164" y="240" on="1"/>
        <pt x="164" y="320" on="1"/>
        <pt x="50" y="320" on="1"/>
        <pt x="50" y="412" on="1"/>
        <pt x="164" y="412" on="1"/>
        <pt x="164" y="800" on="1"/>
        <pt x="438" y="800" on="1"/>
      </contour>
      <contour>
        <pt x="442" y="422" on="1"/>
        <pt x="509" y="422" on="0"/>
        <pt x="586" y="494" on="0"/>
        <pt x="586" y="556" on="1"/>
        <pt x="586" y="618" on="0"/>
        <pt x="509" y="690" on="0"/>
        <pt x="442" y="690" on="1"/>
        <pt x="274" y="690" on="1"/>
        <pt x="274" y="422" on="1"/>
      </contour>
    </TTGlyph>
    <TTGlyph name="v" xMin="70" yMin="0" xMax="680" yMax="600">
      <contour>
        <pt x="186" y="600" on="1"/>
        <pt x="378" y="43" on="1"/>
        <pt x="570" y="600" on="1"/>
        <pt x="680" y="600" on="1"/>
        <pt x="467" y="0" on="1"/>
        <pt x="282" y="0" on="1"/>
        <pt x="70" y="600" on="1"/>
      </contour>
    </TTGlyph>
    <TTGlyph name="w" xMin="33" yMin="0" xMax="717" yMax="600">
      <contour>
        <pt x="149" y="600" on="1"/>
        <pt x="229" y="63" on="1"/>
        <pt x="295" y="600" on="1"/>
        <pt x="463" y="600" on="1"/>
        <pt x="525" y="68" on="1"/>
        <pt x="605" y="600" on="1"/>
        <pt x="717" y="600" on="1"/>
        <pt x="599" y="0" on="1"/>
        <pt x="443" y="0" on="1"/>
        <pt x="375" y="552" on="1"/>
        <pt x="307" y="0" on="1"/>
        <pt x="151" y="0" on="1"/>
        <pt x="33" y="600" on="1"/>
      </contour>
    </TTGlyph>
    <TTGlyph name="x" xMin="78" yMin="0" xMax="672" yMax="600">
      <contour>
        <pt x="283" y="285" on="1"/>
        <pt x="78" y="600" on="1"/>
        <pt x="206" y="600" on="1"/>
        <pt x="375" y="333" on="1"/>
        <pt x="552" y="600" on="1"/>
        <pt x="672" y="600" on="1"/>
        <pt x="465" y="295" on="1"/>
        <pt x="660" y="0" on="1"/>
        <pt x="532" y="0" on="1"/>
        <pt x="374" y="247" on="1"/>
        <pt x="210" y="0" on="1"/>
        <pt x="90" y="0" on="1"/>
      </contour>
    </TTGlyph>
    <TTGlyph name="y" xMin="62" yMin="-216" xMax="690" yMax="600">
      <contour>
        <pt x="190" y="600" on="1"/>
        <pt x="397" y="75" on="1"/>
        <pt x="570" y="600" on="1"/>
        <pt x="690" y="600" on="1"/>
        <pt x="462" y="-62" on="1"/>
        <pt x="409" y="-216" on="0"/>
        <pt x="290" y="-216" on="1"/>
        <pt x="214" y="-216" on="0"/>
        <pt x="121" y="-131" on="0"/>
        <pt x="110" y="-52" on="1"/>
        <pt x="218" y="-52" on="1"/>
        <pt x="234" y="-114" on="0"/>
        <pt x="286" y="-114" on="1"/>
        <pt x="335" y="-114" on="0"/>
        <pt x="362" y="-31" on="1"/>
        <pt x="389" y="50" on="1"/>
        <pt x="291" y="50" on="1"/>
        <pt x="62" y="600" on="1"/>
      </contour>
    </TTGlyph>
    <TTGlyph name="yen" xMin="43" yMin="0" xMax="707" yMax="800">
      <contour>
        <pt x="375" y="458" on="1"/>
        <pt x="578" y="800" on="1"/>
        <pt x="707" y="800" on="1"/>
        <pt x="459" y="392" on="1"/>
        <pt x="625" y="392" on="1"/>
        <pt x="625" y="300" on="1"/>
        <pt x="432" y="300" on="1"/>
        <pt x="432" y="220" on="1"/>
        <pt x="625" y="220" on="1"/>
        <pt x="625" y="128" on="1"/>
        <pt x="432" y="128" on="1"/>
        <pt x="432" y="0" on="1"/>
        <pt x="318" y="0" on="1"/>
        <pt x="318" y="128" on="1"/>
        <pt x="125" y="128" on="1"/>
        <pt x="125" y="220" on="1"/>
        <pt x="318" y="220" on="1"/>
        <pt x="318" y="300" on="1"/>
        <pt x="125" y="300" on="1"/>
        <pt x="125" y="392" on="1"/>
        <pt x="291" y="392" on="1"/>
        <pt x="43" y="800" on="1"/>
        <pt x="174" y="800" on="1"/>
      </contour>
    </TTGlyph>
    <TTGlyph name="z" xMin="132" yMin="0" xMax="618" yMax="600">
      <contour>
        <pt x="618" y="600" on="1"/>
        <pt x="618" y="405" on="1"/>
        <pt x="184" y="104" on="1"/>
        <pt x="618" y="104" on="1"/>
        <pt x="618" y="0" on="1"/>
        <pt x="132" y="0" on="1"/>
        <pt x="132" y="195" on="1"/>
        <pt x="566" y="496" on="1"/>
        <pt x="132" y="496" on="1"/>
        <pt x="132" y="600" on="1"/>
      </contour>
    </TTGlyph>
    <TTGlyph name="zero" xMin="60" yMin="-16" xMax="690" yMax="816">
      <contour>
        <pt x="219" y="-16" on="0"/>
        <pt x="60" y="194" on="0"/>
        <pt x="60" y="400" on="1"/>
        <pt x="60" y="606" on="0"/>
        <pt x="219" y="816" on="0"/>
        <pt x="375" y="816" on="1"/>
        <pt x="531" y="816" on="0"/>
        <pt x="690" y="606" on="0"/>
        <pt x="690" y="400" on="1"/>
        <pt x="690" y="194" on="0"/>
        <pt x="531" y="-16" on="0"/>
        <pt x="375" y="-16" on="1"/>
      </contour>
      <contour>
        <pt x="174" y="362" on="0"/>
        <pt x="177" y="327" on="1"/>
        <pt x="552" y="581" on="1"/>
        <pt x="530" y="645" on="0"/>
        <pt x="442" y="708" on="0"/>
        <pt x="375" y="708" on="1"/>
        <pt x="272" y="708" on="0"/>
        <pt x="174" y="557" on="0"/>
        <pt x="174" y="400" on="1"/>
      </contour>
      <contour>
        <pt x="220" y="155" on="0"/>
        <pt x="308" y="92" on="0"/>
        <pt x="375" y="92" on="1"/>
        <pt x="478" y="92" on="0"/>
        <pt x="576" y="243" on="0"/>
        <pt x="576" y="400" on="1"/>
        <pt x="576" y="439" on="0"/>
        <pt x="573" y="473" on="1"/>
        <pt x="198" y="219" on="1"/>
      </contour>
    </TTGlyph>
</ttFont>
